<svg width="337" height="462" viewBox="0 0 337 462" fill="none" xmlns="http://www.w3.org/2000/svg">
<g id="face">
<g id="jaw">
<path id="Vector 151" d="M41.9928 196.871C39.3667 205.367 36.1478 213.755 33.5692 222.227C32.58 225.478 32.6488 228.808 32.1463 232.102C30.9666 239.836 30.7234 247.314 30.7234 255.239C30.7234 262.856 30.7234 270.473 30.7234 278.091C30.7234 285.938 30.0425 294.126 31.2356 301.882C32.5649 310.522 32.3036 319.343 34.0815 327.978C34.9076 331.991 35.5315 336.034 36.2443 340.072C36.8743 343.642 38.416 346.911 39.0332 350.545C40.9726 361.966 44.41 372.955 49.4488 383.329C51.9046 388.385 55.2058 392.873 58.3847 397.558C61.3391 401.912 64.3756 406.679 68.1174 410.421C71.3985 413.702 72.5338 419.255 76.3133 422.146C78.7563 424.014 80.7397 426.776 83.2286 428.435C85.1384 429.708 87.8052 431.813 89.4041 433.557C92.6409 437.089 98.308 439.143 102.324 441.725C106.878 444.652 112.194 446.547 116.98 449.124C119.152 450.294 122.579 450.443 124.464 451.97C126.284 453.443 129.602 454.892 131.864 455.442C134.379 456.054 137.127 455.659 139.604 456.352C142.91 457.278 146.961 458.117 150.418 458.117C163.61 458.117 177.321 459.176 190.26 456.978C202.32 454.931 213.492 448.551 223.954 442.522C229.097 439.558 233.544 434.945 238.183 431.366C240.627 429.481 242.037 426.992 244.842 425.589C247.604 424.208 250.033 421.11 252.213 418.93C254.522 416.621 256.179 412.773 258.047 410.079C259.288 408.29 259.924 406.197 261.462 404.616C262.813 403.226 264.15 401.927 264.934 400.119C267.852 393.384 272.014 387.324 275.293 380.768C278.472 374.409 280.019 367.27 282.976 360.818C285.987 354.251 288.356 347.457 290.945 340.699C293.694 333.52 296.016 326.058 298.372 318.729C300.441 312.292 302.726 306.699 302.726 299.833C302.726 296.382 303.381 292.311 304.007 288.933C304.685 285.27 304.001 281.053 305.031 277.55C305.776 275.019 304.978 272.289 305.686 269.724C306.503 266.76 305.731 262.84 305.8 259.764C305.918 254.426 307.849 249.067 307.849 243.713C307.849 239.23 308.873 234.756 308.873 230.167" stroke="black" stroke-width="6" stroke-linecap="round"/>
<path id="Vector 192" d="M278.987 369.258C273.828 376.832 269.689 385.086 265.4 393.174C263.098 397.515 260.378 401.629 257.911 405.877C255.472 410.079 252.267 413.565 249.29 417.368C247.721 419.374 245.862 421.154 244.066 422.95C242.27 424.747 240.228 426.334 238.504 428.194C237.221 429.578 235.841 430.963 234.482 432.266C233.621 433.092 232.962 434.114 232.028 434.868C229.902 436.588 227.519 437.896 225.344 439.527C222.9 441.36 220.535 443.28 217.816 444.711C216.463 445.423 215.22 446.301 213.873 447.025C210.779 448.688 207.332 449.849 204.08 451.137" stroke="black" stroke-width="6" stroke-linecap="round"/>
<path id="Vector 193" d="M216.84 443.253C213.82 445.571 211.053 447.827 207.573 449.335C205.815 450.097 204.044 450.843 202.264 451.555C199.276 452.75 196.172 453.711 193.008 454.343C185.097 455.926 177.232 456.767 169.154 456.767C167.217 456.767 165.278 456.788 163.341 456.767C161.132 456.744 158.92 456.205 156.713 456.038C154.428 455.865 152.117 455.555 149.848 455.223C147.534 454.884 145.137 454.619 142.877 454.022C132.842 451.371 122.868 448.637 113.36 444.412" stroke="black" stroke-width="6" stroke-linecap="round"/>
<path id="Vector 194" d="M119.75 446.114C114.773 444.579 110.138 442.979 105.681 440.351C103.588 439.116 101.647 437.713 99.6117 436.383C95.3719 433.61 91.1363 431.019 87.4637 427.463C84.9251 425.006 82.3361 422.603 80.0144 419.933C77.6693 417.236 75.3328 414.529 73.0069 411.816C71.7083 410.301 70.3349 408.869 69.1831 407.235C67.1716 404.381 65.2691 401.38 63.1316 398.622C62.2297 397.458 61.4689 396.249 60.6245 395.051C60.164 394.397 59.5996 393.893 59.1995 393.193" stroke="black" stroke-width="6" stroke-linecap="round"/>
<path id="Vector 195" d="M61.871 396.425C57.4767 390.479 53.4606 384.628 51.1248 377.621C49.6067 373.067 47.7679 368.622 46.1956 364.086C44.5064 359.214 42.8602 354.223 41.5901 349.224C40.3072 344.175 38.7867 339.189 37.524 334.138" stroke="black" stroke-width="6" stroke-linecap="round"/>
<path id="Vector 196" d="M41.1669 343.622C39.0821 338.659 37.2051 333.455 36.3913 328.098C35.8764 324.708 35.1122 321.356 34.6264 317.955C34.348 316.007 34.0483 314.047 33.7 312.11C33.2283 309.485 33.1021 306.881 32.9014 304.227C32.6358 300.716 32.2104 297.226 31.8233 293.742" stroke="black" stroke-width="6" stroke-linecap="round"/>
<path id="Vector 197" d="M33.8595 304.39C33.5655 293.769 33.194 283.151 33.4043 272.533C33.491 268.157 33.3954 263.774 33.4126 259.397C33.4303 254.875 33.7138 250.358 33.8595 245.84" stroke="black" stroke-width="6" stroke-linecap="round"/>
<path id="Vector 198" d="M34.233 252.973C34.233 243.508 33.723 233.758 35.7116 224.436C36.7732 219.46 37.9662 214.513 39.0496 209.542C40.1774 204.367 41.2098 199.061 42.8866 194.03" stroke="black" stroke-width="6" stroke-linecap="round"/>
</g>
<path id="mouth" d="M112.226 354.824C122.827 359.123 133.559 363.201 144.534 366.402C148.734 367.627 152.984 367.848 157.277 368.551C164.978 369.811 173.503 369.174 180.417 365.451" stroke="black" stroke-width="6" stroke-linecap="round"/>
<path id="nose" d="M165.441 216.725C166.449 224.788 164.702 232.01 162.263 239.648C160.241 245.975 157.399 251.748 153.527 257.136C149.316 262.994 144.364 268.293 140.276 274.24C138.134 277.356 136.025 280.492 134.396 283.912C133.242 286.336 132.122 289.686 132.016 292.388C131.774 298.548 133.227 304.341 137.589 308.816C140.57 311.873 143.33 313.888 147.247 315.618C150.316 316.973 153.622 317.717 156.935 318.212C163.091 319.132 170.674 319.18 176.25 316.002C180.483 313.588 183.671 310.249 187.274 307.096" stroke="black" stroke-width="6" stroke-linecap="round"/>
<g id="eyes">
<g id="left-eye">
<path id="Vector 142" d="M215.731 227.414C223.581 223.931 231.512 222.61 240.061 221.969C243.795 221.689 246.874 221.904 250.453 222.653C254.099 223.417 257.609 224.258 261.094 225.594C265.339 227.221 269.17 229.351 273.103 231.598C275.5 232.968 276.58 234.78 278.439 236.639C278.909 237.108 279.271 237.72 279.715 238.163C279.761 238.21 279.126 237.303 278.875 237.09C272.53 231.722 264.989 227.455 256.816 225.609C253.02 224.752 249.177 223.493 245.257 223.493C241.498 223.493 237.738 223.493 233.979 223.493C230.742 223.493 227.654 224.336 224.629 225.454C222.127 226.378 219.55 226.428 217.287 228.036C215.898 229.023 213.458 230.415 212.588 231.894C212.184 232.581 212.288 231.697 212.775 231.209C214.071 229.914 215.056 228.914 216.664 227.974C221.342 225.239 225.866 223.332 231.225 222.156C237.879 220.695 245.301 220.987 252.009 221.813C257.822 222.53 263.199 224.319 268.281 227.196C272.142 229.383 276.011 231.434 278.735 234.974" stroke="black" stroke-width="6" stroke-linecap="round"/>
<path id="Vector 145" d="M269.359 252.052C267.603 253.808 265.901 255.344 263.754 256.611C260.866 258.315 257.583 259.368 254.255 259.783C250.914 260.199 247.695 260.224 244.367 259.691C239.371 258.89 234.984 256.795 230.423 254.687" stroke="black" stroke-width="6" stroke-linecap="round"/>
<path id="Vector 147" d="M236.793 227.752C236.507 228.686 236.107 229.593 235.935 230.555C235.375 233.684 235.573 236.25 235.916 239.431C236.16 241.705 236.423 245.715 237.847 247.832C238.346 248.574 239.74 248.947 240.526 249.23C242.477 249.931 244.686 250.111 246.749 249.802C248.704 249.509 250.19 248.763 251.639 247.435C252.971 246.213 253.604 244.651 254.174 242.968C254.731 241.329 255.052 239.622 255.052 237.89C255.052 236.629 255.064 235.102 254.578 233.917C253.102 230.321 248.547 228.246 244.869 228.246C242.324 228.246 240.087 229.347 239.186 231.784C237.761 235.639 238.546 240.709 241.319 243.774C242.366 244.932 243.643 245.644 245.208 245.686C246.61 245.723 248.569 245.416 249.486 244.216C251.321 241.816 250.303 238.085 248.511 235.958C247.604 234.882 246.555 234.334 245.156 234.989C243.323 235.848 242.379 237.734 241.956 239.613C241.667 240.899 241.634 242.346 242.795 243.228C243.829 244.013 245.636 243.961 246.612 243.111C247.894 241.995 248.587 240.268 248.186 238.605C247.806 237.032 246.371 236.167 244.817 235.958C243.352 235.762 241.539 236.559 240.701 237.779C240.064 238.708 240.07 239.799 240.188 240.861" stroke="black" stroke-width="6" stroke-linecap="round"/>
</g>
<g id="right-eye">
<path id="Vector 146" d="M74.2203 206.821C76.9697 204.316 80.0645 202.624 83.4996 201.2C88.4808 199.135 93.7962 197.74 99.1685 197.21C104.292 196.704 109.737 197.164 114.745 198.31C119.401 199.376 124.157 200.726 128.239 203.281C134.601 207.264 140.346 212.256 144.266 218.725C144.984 219.908 145.628 221.147 146.162 222.423C146.203 222.522 146.701 223.291 146.447 222.98C145.849 222.25 145.366 221.422 144.83 220.634C143.768 219.072 142.485 217.58 141.151 216.246C137.49 212.585 133.447 209.271 129.22 206.291C124.705 203.106 119.604 200.239 114.301 198.648C110.779 197.592 107.096 196.857 103.43 196.56C101.304 196.388 99.1612 196.262 97.0276 196.348C94.9795 196.432 92.9201 196.568 90.8834 196.799C87.2411 197.212 83.7403 198.215 80.1856 199.066" stroke="black" stroke-width="6" stroke-linecap="round"/>
<path id="Vector 147_2" d="M101.765 201.864C101.478 202.798 101.078 203.704 100.906 204.666C100.347 207.795 100.545 210.361 100.887 213.542C101.131 215.816 101.394 219.827 102.818 221.943C103.317 222.686 104.711 223.059 105.497 223.341C107.448 224.042 109.657 224.223 111.72 223.913C113.675 223.62 115.161 222.875 116.61 221.547C117.943 220.325 118.575 218.762 119.146 217.079C119.702 215.44 120.023 213.734 120.023 212.001C120.023 210.74 120.035 209.213 119.549 208.028C118.074 204.432 113.518 202.358 109.841 202.358C107.295 202.358 105.058 203.458 104.157 205.895C102.733 209.751 103.517 214.82 106.29 217.886C107.337 219.043 108.614 219.756 110.179 219.797C111.582 219.835 113.541 219.528 114.457 218.328C116.292 215.927 115.274 212.197 113.482 210.07C112.575 208.994 111.526 208.445 110.127 209.101C108.294 209.959 107.351 211.845 106.928 213.724C106.638 215.011 106.605 216.458 107.766 217.339C108.8 218.124 110.607 218.072 111.583 217.222C112.865 216.106 113.558 214.379 113.157 212.716C112.777 211.144 111.343 210.278 109.789 210.07C108.324 209.873 106.51 210.67 105.673 211.89C105.035 212.819 105.041 213.911 105.159 214.973" stroke="black" stroke-width="6" stroke-linecap="round"/>
<path id="Vector 148" d="M120.492 232.88C108.776 240.12 92.5544 235.612 84.5722 224.908C83.5103 223.484 82.4386 222.052 81.581 220.493C81.5097 220.364 81.3678 220.134 81.2169 220.083C80.8371 219.957 81.4605 220.848 81.62 221.215C82.6088 223.491 83.9861 225.729 85.6126 227.6C88.6759 231.125 92.3641 233.541 96.2636 236.041" stroke="black" stroke-width="6" stroke-linecap="round"/>
</g>
</g>
<g id="ears">
<path id="left-ear" d="M307.576 255.048C309.357 252.17 311.432 249.358 314.257 247.419C315.263 246.728 316.666 245.932 317.854 246.627C319.162 247.391 319.589 248.863 319.909 250.252C320.774 254.007 320.817 258.001 320.016 261.765C319.224 265.491 317.37 268.966 315.927 272.463C315.089 274.493 314.094 276.496 313.079 278.444C312.31 279.922 311.412 281.341 310.488 282.727C308.531 285.662 307.006 288.783 305.392 291.919" stroke="black" stroke-width="6" stroke-linecap="round"/>
<g id="right-ear">
<path id="Vector 152" d="M32.7512 220.797C31.1979 218.459 29.302 215.543 27.6262 213.23C26.8214 212.119 25.9297 210.833 24.7734 210.026C24.0891 209.549 23.343 208.979 22.5712 208.655C21.207 208.083 19.5864 207.489 18.1169 207.324C15.0261 206.976 11.802 207.909 9.56853 210.107C6.73785 212.892 5.35205 216.46 4.64371 220.317C3.87824 224.484 3.69281 229.266 4.28336 233.469C5.08609 239.183 5.52963 244.934 6.2653 250.646C7.06819 256.88 7.56021 263.055 8.96794 269.204C10.3593 275.282 12.3864 281.646 15.194 287.222C16.7405 290.293 18.5605 293.319 20.6494 296.051C23.3404 299.57 26.9259 302.089 30.4089 304.759" stroke="black" stroke-width="6" stroke-linecap="round"/>
<path id="Vector 177" d="M20.942 225.243C19.1314 227.04 17.3295 228.586 16.0079 230.807C14.5245 233.299 14.2622 236.007 14.3216 238.825C14.3959 242.346 14.8667 245.926 15.2796 249.421C15.8335 254.11 16.8946 258.598 19.0524 262.8" stroke="black" stroke-width="6" stroke-linecap="round"/>
</g>
</g>
<g id="eyebrows">
<path id="left-brow" d="M208.423 192.354C211.299 189.747 214.183 187.582 217.563 185.652C222.441 182.864 227.483 180.875 232.989 179.72C244.243 177.359 255.515 178.227 266.287 182.174C271.261 183.996 276.398 186.054 281.012 188.664C284.276 190.511 287.298 192.632 289.956 195.29C292.52 197.854 296.463 201.463 296.463 205.444C296.463 209.79 289.486 210.19 286.546 209.566C276.739 207.482 267.74 202.531 257.961 200.274C247.277 197.809 236.528 194.919 225.449 196.077C221.532 196.486 216.764 197.849 212.925 196.314C212.482 196.137 210.892 195.38 210.861 194.791C210.814 193.901 211.115 193.375 211.724 192.717C215.166 188.999 220.835 188.8 225.534 188.689C227.295 188.648 229.058 188.384 230.814 188.241C232.979 188.065 235.15 188.132 237.313 187.936C242.083 187.505 246.773 187.443 251.546 187.86C256.328 188.278 260.632 189.863 264.925 191.897C265.885 192.351 266.616 193.034 267.523 193.538C267.821 193.704 268.256 194.305 267.751 193.801C267.317 193.366 266.587 193.241 266.076 192.887C265.309 192.356 264.396 191.982 263.563 191.558C257.037 188.236 249.651 187.783 242.441 187.513C240.944 187.457 239.508 187.34 238.024 187.107C237.258 186.987 236.295 186.951 235.629 186.489C235.128 186.142 235.717 185.944 236.061 185.787C238.852 184.51 241.908 184.154 244.946 183.976C247.846 183.806 250.713 183.81 253.586 184.306C255.995 184.722 258.288 185.46 260.618 186.168C260.897 186.252 262.627 186.632 261.464 186.532C257.422 186.182 253.421 185.487 249.346 185.668C243.999 185.906 238.652 186.958 233.412 187.996C231.865 188.302 230.317 188.597 228.766 188.884C227.728 189.076 226.535 189.459 225.466 189.459C225.107 189.459 226.144 189.219 226.49 189.121C228.452 188.566 230.467 188.213 232.473 187.86C238.294 186.836 244.18 186.155 250.099 186.371C254.055 186.515 258.111 187.434 261.836 188.766C262.582 189.032 263.326 189.332 264.053 189.646C264.631 189.894 264.204 189.779 263.8 189.663C260.501 188.711 257.224 187.63 253.857 186.946C247.017 185.556 239.708 185.143 232.769 185.973C229.915 186.315 227.258 187.077 224.62 188.207C224.466 188.273 222.723 189.199 223.181 189.121C225.442 188.738 227.645 187.689 229.824 187.014C233.549 185.859 237.351 184.849 241.155 183.984C241.99 183.795 242.847 183.643 243.66 183.367C243.812 183.315 244.192 183.062 244.032 183.062C241.13 183.062 238.158 183.819 235.333 184.399C229.392 185.619 223.528 187.966 218.434 191.262C217.582 191.813 215.254 193.535 216.259 193.394C224.297 192.273 232.041 190.074 240.216 189.933C248.207 189.796 255.664 191.547 262.92 194.841C263.115 194.93 265.644 196.128 265.247 196.525C264.729 197.043 262.219 196.617 261.743 196.585C259.351 196.421 257.014 196.003 254.652 195.611C250.086 194.854 245.522 194.083 240.969 193.251C239.276 192.941 237.572 192.612 235.908 192.167C235.562 192.075 234.801 191.965 234.504 191.71C234.289 191.526 236.41 191.154 236.467 191.152C242.596 190.902 248.769 192.348 254.584 194.139C264.557 197.21 273.775 201.615 283.026 206.35C283.171 206.424 284.741 207.213 283.914 206.629C281.529 204.946 279.252 203.213 276.73 201.721C273.837 200.011 270.931 198.335 267.794 197.109C265.217 196.103 262.504 195.432 260.11 194.012C259.635 193.73 258.9 193.262 259.459 192.65C260.189 191.848 261.675 191.602 262.657 191.389C264.593 190.968 266.546 190.845 268.521 190.932C271.826 191.076 275.167 192.068 278.185 193.386C281.538 194.85 284.85 196.617 287.392 199.309C287.765 199.704 289.217 201.026 288.416 201.62C287.99 201.935 287.296 201.943 286.8 201.907C285.298 201.799 283.727 201.489 282.323 200.943C278.188 199.333 274.309 196.781 270.451 194.604C267.234 192.789 263.923 191.066 261.041 188.732C260.497 188.291 259.09 187.256 260.618 187.132C262.239 187.002 264.024 187.627 265.543 188.072C268.405 188.909 271.143 190.018 273.827 191.313C275.394 192.068 292.495 201.619 289.778 203.744C288.464 204.771 285.334 203.613 284.024 203.194C281.397 202.352 278.127 201.205 275.977 199.394C275.083 198.642 276.332 199.033 276.747 199.157C278.779 199.763 280.71 200.546 282.602 201.493" stroke="black" stroke-width="6" stroke-linecap="round"/>
<path id="right-brow" d="M67.1881 170.612C70.1127 169.897 72.9581 169.177 75.971 168.942C81.0618 168.544 86.1971 168.562 91.2985 168.408C94.7928 168.303 98.2788 168.158 101.774 168.158C104.956 168.158 108.137 168.158 111.319 168.158C115.946 168.158 120.432 168.534 124.999 169.226C135.907 170.879 147.13 174.128 155.017 182.27C157.002 184.318 158.821 187.087 158.358 190.041C158.038 192.083 155.996 193.322 154.188 194.03C151.118 195.231 147.058 194.435 143.973 193.723C139.62 192.718 135.522 190.859 131.18 189.837C125.111 188.409 119.23 186.272 113 185.553C106.756 184.833 100.427 185.092 94.1618 185.497C88.413 185.867 82.4923 185.735 76.9482 184.122C73.4799 183.113 68.8422 180.794 67.3017 177.293C65.3745 172.913 73.6506 172.191 76.0733 172.089C81.7946 171.848 87.7438 172.637 93.4119 173.362C99.8807 174.189 106.418 175.363 112.75 176.918C112.904 176.956 114.459 177.301 113.977 177.679C113.62 177.961 113.082 178.117 112.659 178.225C110.671 178.73 108.598 179 106.569 179.27C98.8694 180.295 91.1334 180.028 83.4132 179.452C82.3423 179.372 79.1012 179.373 81.902 178.77C90.5941 176.898 99.6421 177.257 108.433 178.179C110.263 178.371 112.433 178.362 114.205 178.952C116.235 179.629 109.979 178.265 107.865 177.929C99.2808 176.567 90.6452 176.339 81.9702 176.339C79.8176 176.339 77.7152 176.368 75.5847 176.532C75.4795 176.54 74.6937 176.571 75.1075 176.316C76.3855 175.529 77.8288 175.113 79.2774 174.748C82.2235 174.005 85.2776 173.75 88.2989 173.521C91.7151 173.262 95.2099 172.969 98.6385 173.112C104.673 173.363 110.805 173.611 116.795 174.396C122.548 175.149 128.001 176.142 133.543 177.884C134.924 178.318 136.346 178.724 137.679 179.293C137.806 179.347 139.562 179.997 138.747 179.997C136.841 179.997 134.896 179.587 133.02 179.304C129.608 178.79 126.172 178.51 122.738 178.191C117.797 177.731 112.852 177.361 107.887 177.361C107.797 177.361 106.893 177.29 107.319 177.407C109.277 177.941 111.429 177.959 113.432 178.225C122.026 179.364 130.59 181.45 138.826 184.156C142.041 185.212 145.312 186.435 148.234 188.167C148.496 188.322 148.947 188.587 149.268 188.587C149.992 188.587 148.245 187.552 147.655 187.133C145.769 185.792 143.576 184.728 141.474 183.769C139.577 182.904 137.257 182.264 135.656 180.872C133.608 179.091 141.473 179.693 141.86 179.747C144.801 180.159 148.605 180.964 149.973 183.974C151.161 186.588 148.726 188.787 146.393 189.473C142.18 190.713 137.919 188.525 134.804 185.849C134.484 185.574 132.478 184.114 132.998 183.406C133.995 182.046 137.433 183.131 138.588 183.451C140.396 183.952 142.038 185.071 143.61 186.065C144.193 186.434 145.251 186.997 145.473 187.746C145.666 188.397 143.581 188.17 143.36 188.155C141.022 188.002 138.639 187.078 136.611 185.951C135.743 185.469 134.246 184.702 133.986 183.61C133.603 182.001 139.278 182.078 139.906 182.133C142.225 182.338 148.3 183.002 149.495 185.735C150.305 187.586 146.69 188.333 145.655 188.473C143.685 188.741 141.7 188.4 139.781 187.951C136.591 187.204 133.402 186.411 130.362 185.178C129.071 184.655 127.656 184.168 126.453 183.451C125.872 183.105 125.802 182.842 126.521 182.633C129.013 181.909 131.905 182.395 134.406 182.77C138.438 183.374 142.536 184.12 146.428 185.36C146.963 185.531 152.208 187.071 151.541 188.405C151.144 189.198 149.75 189.424 149.007 189.61C146.856 190.147 144.463 190.041 142.292 189.655C139.775 189.208 137.337 188.327 134.884 187.633C131.416 186.651 127.936 185.713 124.465 184.747C122.181 184.111 119.278 183.387 117.295 182.065" stroke="black" stroke-width="6" stroke-linecap="round"/>
</g>
<g id="heir">
<path id="Vector 154" d="M39.6089 195.835C40.8127 190.518 42.2481 185.531 43.8954 180.345C45.2092 176.209 45.5499 171.762 46.477 167.534C48.9018 156.477 50.0777 145.157 52.7606 134.119C55.261 123.832 58.0489 112.987 61.9668 103.139C65.3002 94.7608 68.2093 86.2671 71.6114 77.9077C73.5186 73.2213 75.1031 68.4166 77.3105 63.8792C80.366 57.5983 86.7178 54.861 93.1899 52.9194C109.685 47.9709 126.562 44.6638 143.654 42.739C164.721 40.3666 186.088 45.2239 206.636 49.3149C224.133 52.7985 241.435 57.2754 258.804 61.3462C266.535 63.1581 274.42 65.4895 281.503 69.1399C286.474 71.7019 291.861 74.0026 296.165 77.6641C299.903 80.8444 303.937 84.1414 306.881 88.0881C309.431 91.5067 311.117 94.9955 312.726 98.9504C314.378 103.009 316.303 107.084 317.451 111.323C318.657 115.777 318.806 120.718 318.864 125.303C318.987 135.143 318.671 144.895 317.11 154.626C316.311 159.61 315.39 164.692 315.015 169.726C314.675 174.302 313.283 178.964 313.164 183.511C312.918 193.017 313.269 202.546 313.164 212.055C313.119 216.208 312.145 221.038 310.973 225.012C310.228 227.536 309.219 230.011 309.219 232.659" stroke="black" stroke-width="6" stroke-linecap="round"/>
<path id="Vector 155" d="M34.1065 204.934C27.4439 191.144 26.8318 176.413 26.8318 161.428C26.8318 153.155 26.8318 144.882 26.8318 136.609C26.8318 124.161 28.0251 111.629 32.062 99.8069C34.4443 92.8302 36.841 85.8973 40.3115 79.409C44.1811 72.1745 48.5781 65.3846 52.6025 58.2504C54.8213 54.3171 58.054 50.7679 60.7331 47.1243C63.9634 42.7311 67.823 38.2754 71.9306 34.6906C86.2848 22.1632 102.491 12.01 120.12 4.66437" stroke="black" stroke-width="6" stroke-linecap="round"/>
<path id="Vector 156" d="M111.504 5.28676C138.838 3.65753 165.838 2.05873 193.101 4.03743C201.934 4.67856 210.337 7.1583 219.024 8.64434C236.782 11.6819 254.224 19.0277 270.442 26.7987C276.77 29.8311 284.127 32.9575 289.377 37.7304C294.906 42.7567 299.592 48.5293 304.369 54.245C313.167 64.7716 319.528 78.0703 324.476 90.7489C329.288 103.082 330.662 115.625 332.518 128.619C334.183 140.272 334.914 153.649 332.167 165.123C329.216 177.448 327.281 190.176 325.452 202.72C324.679 208.017 323.804 213.476 322.602 218.688C320.665 227.078 316.371 234.871 313.193 242.816" stroke="black" stroke-width="6" stroke-linecap="round"/>
<path id="Vector 161" d="M315.569 160.71C316.913 161.337 318.511 161.585 319.602 162.591C322.495 165.258 321.726 168.335 321.103 171.759C320.595 174.546 317.013 180.716 319.783 183.296C322.218 185.566 323.578 187.385 323.182 190.855C322.346 198.196 318.849 205.169 317.522 212.465" stroke="black" stroke-width="6" stroke-linecap="round"/>
<path id="Vector 163" d="M36.7673 184.308C35.4568 180.932 33.0193 176.519 33.4108 172.687C33.5451 171.373 34.5062 171.297 35.4069 170.767C37.5006 169.536 38.6126 166.858 39.6915 164.817C41.4507 161.49 42.3056 157.898 43.4039 154.328" stroke="black" stroke-width="6" stroke-linecap="round"/>
<path id="Vector 164" d="M33.1057 178.586C33.0105 165.263 32.7758 151.879 34.2753 138.614C35.0417 131.835 36.0504 124.942 38.0386 118.399C38.3391 117.41 38.6781 116.43 39.0049 115.449C39.0503 115.313 39.2846 114.197 39.2846 114.953C39.2846 121.482 38.4172 128.018 37.4792 134.469C36.1104 143.884 34.245 153.222 32.9149 162.643C32.5844 164.984 32.3426 167.336 31.9868 169.674C31.8968 170.266 31.4832 171.91 31.8851 171.467C32.895 170.352 33.4776 168.519 34.0211 167.195C36.7966 160.433 39.1146 153.498 41.7257 146.675C46.7462 133.554 53.2327 121.461 60.11 109.245" stroke="black" stroke-width="6" stroke-linecap="round"/>
<path id="Vector 166" d="M100.72 33.3542C106.602 30.0401 112.345 26.4902 118.029 22.8481C120.128 21.5026 121.741 20.4458 123.762 19.0982C124.578 18.5546 125.956 17.8418 126.629 17.0218C127.694 15.7234 123.289 17.497 121.686 17.998C114.131 20.3589 107.29 24.4875 100.72 28.8295C82.4933 40.8748 67.0502 56.9046 53.9851 74.3248C48.7223 81.3418 44.0879 88.5473 40.8138 96.7005C38.1809 103.257 36.8614 109.863 35.4523 116.752" stroke="black" stroke-width="6" stroke-linecap="round"/>
<path id="Vector 167" d="M99.0466 34.4699C86.0792 46.264 75.0606 59.9051 65.235 74.3867C62.109 78.9941 58.9339 83.6677 56.4025 88.6427C53.4037 94.5365 51.4394 100.822 49.1195 106.99" stroke="black" stroke-width="6" stroke-linecap="round"/>
<path id="Vector 168" d="M99.0465 38.3748C85.1918 51.9048 74.1107 68.1865 64.5376 84.9393C56.9951 98.1388 51.7384 112.076 46.3302 126.235" stroke="black" stroke-width="6" stroke-linecap="round"/>
<path id="Vector 169" d="M149.088 24.499C170.549 21.7191 193.525 18.3122 215.058 22.5816C218.231 23.2107 221.275 23.9948 224.208 25.3485C224.527 25.4956 225.505 25.8323 225.155 25.8097C223.38 25.6952 221.484 25.1989 219.766 24.8631C196.262 20.2682 172.016 20.5652 148.19 21.6593C142.64 21.9141 137.124 22.3171 131.588 22.7272C126.842 23.0787 141.101 22.352 145.86 22.3874C164.913 22.5291 184.034 24.1985 202.339 29.7417C205.738 30.7709 210.322 31.6791 213.31 33.7707C214.994 34.9495 213.003 35.2738 211.854 35.3241C204.222 35.6584 196.38 34.0303 188.796 33.3339C180.672 32.5877 172.48 32.7544 164.33 32.7999C149.321 32.8837 134.331 34.9478 120.253 40.227" stroke="black" stroke-width="6" stroke-linecap="round"/>
<path id="Vector 171" d="M249.572 38.9163C263.109 44.5134 276.512 50.4962 288.285 59.3044C296.651 65.5635 304.528 72.4141 311.27 80.4206C312.692 82.1088 315.477 85.3522 311.634 81.9983C303.864 75.2167 297.458 67.3437 291.222 59.1588C288.881 56.0857 286.883 52.7805 284.814 49.523C283.637 47.6701 281.346 45.0962 281.538 42.7027C281.671 41.0381 284.03 41.9416 284.911 42.2658C290.471 44.3117 295.242 48.434 299.28 52.654C308.065 61.8346 314.246 74.1045 318.236 86.0759C318.774 87.6907 323.475 104.836 321.828 105.202C320.999 105.386 319.334 102.161 319.086 101.78C316.908 98.4365 315.166 94.9895 313.794 91.2457C312.973 89.0022 311.562 83.9943 314.158 89.3768C320.043 101.577 323.594 115.463 325.833 128.769C326.489 132.665 327.142 136.635 327.314 140.59C327.413 142.864 327.274 143.269 327.362 140.541C327.446 137.934 327.809 135.383 328.115 132.799C328.191 132.154 328.233 129.218 328.212 131.731C328.088 146.167 328.061 161.09 326.27 175.419C326.179 176.148 325.81 179.205 326.221 176.439C326.864 172.12 327.46 167.779 328.212 163.478C328.856 159.79 328.263 162.717 327.823 164.837C326.528 171.078 325.263 177.313 323.843 183.526" stroke="black" stroke-width="6" stroke-linecap="round"/>
<path id="Vector 172" d="M245.203 50.2754C253.053 51.1681 260.73 51.9116 267.921 55.3967C272.247 57.4932 276.28 60.11 280.494 62.4112C285.025 64.8858 289.844 67.6153 294.766 69.2557C298.003 70.3351 290.144 65.0652 289.911 64.9354C274.374 56.2674 256.027 52.7408 238.941 48.5278C228.149 45.8669 217.254 43.3312 206.854 39.3532C206.488 39.2132 196.659 35.0403 197.291 34.329C198.582 32.8772 204.121 33.4104 205.738 33.431C213.59 33.5308 221.674 35.4841 229.281 37.2659C233.635 38.2858 237.893 39.5882 242.169 40.8823C244.225 41.5044 246.867 42.7998 249.062 42.7998C250.258 42.7998 246.568 40.7872 246.514 40.761C240.3 37.747 233.389 35.7406 226.757 33.9407C205.054 28.0512 182.615 26.8051 160.301 29.499C153.319 30.342 146.368 31.6861 139.549 33.4067C137.88 33.828 134.64 34.1576 133.214 35.3241C131.672 36.5864 137.053 34.2313 138.918 33.528C144.653 31.3655 150.391 29.1395 156.078 26.8534C157.123 26.4335 167.388 22.8581 163.699 20.737C159.866 18.5326 154.732 17.905 150.447 17.3632C142.663 16.379 134.684 16.1478 126.855 16.6351C124.3 16.7941 119.149 18.1539 117.122 16.4652C116.285 15.7677 111.625 19.0213 111.079 19.3535C106.587 22.0822 104.335 24.8163 101.904 29.3048" stroke="black" stroke-width="6" stroke-linecap="round"/>
<path id="Vector 174" d="M125.06 16.6987C112.709 21.1783 101.048 27.1338 90.6594 35.262C82.0095 42.0297 76.9344 51.2722 71.0874 60.3675" stroke="black" stroke-width="6" stroke-linecap="round"/>
<path id="Vector 178" d="M60.7038 61.7698C69.4106 50.269 78.8889 39.3672 89.767 29.8361C94.5353 25.6583 101.724 20.0295 107.887 17.0985C108.309 16.8976 109.447 16.767 109.286 17.2062C108.942 18.1437 107.87 18.6196 107.097 19.2514C99.0558 25.8218 90.3309 31.688 82.0886 38.0169C76.6951 42.1583 70.9137 46.1534 66.3729 51.2568C65.4912 52.2477 64.6567 53.2959 63.7177 54.2349C61.9772 55.9754 67.1853 50.7335 69.046 49.1219C77.2303 42.0331 86.5183 36.6051 95.9025 31.2713C104.255 26.5241 112.906 21.5665 122.311 19.2155C136.702 15.6175 152.694 18.9699 166.946 21.0813" stroke="black" stroke-width="6" stroke-linecap="round"/>
<path id="Vector 179" d="M85.8918 52.0822C98.3602 46.3773 111.455 41.7368 124.499 37.5506C133.433 34.6834 141.608 32.9907 150.907 32.7784C157.81 32.6209 164.748 32.8892 171.592 33.8369C172.64 33.982 173.682 34.1798 174.732 34.3034C175.425 34.3849 173.345 34.4561 172.651 34.5186C158.566 35.7863 144.473 37.167 130.455 39.0575C118.698 40.6431 106.876 43.7114 94.9696 43.8655C92.2769 43.9004 85.4274 44.1581 88.4931 39.8469C94.6834 31.1419 105.175 25.4346 114.919 21.7452C121.409 19.288 128.379 17.4197 135.299 16.7219C146.507 15.5917 158.041 17.3827 169.206 18.1751" stroke="black" stroke-width="6" stroke-linecap="round"/>
<path id="Vector 181" d="M104.944 19.7896C125.113 11.6431 147.299 7.22634 169.063 9.20487C185.072 10.6603 199.649 16.4662 214.416 22.373" stroke="black" stroke-width="6" stroke-linecap="round"/>
<path id="Vector 182" d="M102.361 16.8833C109.563 13.9717 116.892 11.9612 124.535 10.4965C136.909 8.12541 149.641 6.46234 162.264 7.10582C179.97 8.00851 196.715 12.7247 213.77 17.2062" stroke="black" stroke-width="6" stroke-linecap="round"/>
<path id="Vector 183" d="M158.227 34.6442C171.376 37.0717 184.72 38.3919 197.803 41.1744C209.201 43.5987 220.348 46.8979 231.531 50.1445" stroke="black" stroke-width="6" stroke-linecap="round"/>
<path id="Vector 184" d="M201.803 22.2284C208.782 22.3108 208.6 22.131 217.433 23.5384C233.939 26.1682 250.464 29.7116 266.079 35.7892C272.088 38.1279 272.633 38.6449 276.812 41.4309C278.705 42.6933 277.58 42.0676 276.678 41.7583C265.693 37.9904 254.872 33.7734 243.87 30.0583C231.99 26.047 220.036 21.9905 207.787 19.2513C206.383 18.9372 202.199 18.61 203.59 18.2391C204.516 17.992 206.053 18.2466 206.954 18.3284C209.964 18.6021 212.95 19.1996 215.9 19.8319C231.495 23.1737 246.936 28.4979 261.361 35.3129C265.942 37.4772 270.588 39.7165 274.832 42.5026C275.259 42.7827 279.422 45.6017 276.827 45.2416C271.933 44.5627 267.15 42.7911 262.417 41.4606C255.227 39.439 247.962 37.7135 240.625 36.3102C235.641 35.3569 230.575 34.3764 225.501 34.0625C224.806 34.0195 221.011 33.5585 223.521 34.5686C234.138 38.8397 245.151 42.0121 255.868 46.0007C260.623 47.7707 265.394 49.6317 269.86 52.0592C270.002 52.1362 274.165 54.3232 272.733 54.4557C271.499 54.57 269.852 54.2995 268.774 54.1431C262.125 53.1789 255.527 51.8313 248.931 50.5706C242.154 49.2753 235.388 47.7924 228.538 46.9236C228.456 46.9133 220.692 45.9407 222.524 46.9683C226.881 49.4122 231.986 50.6572 236.755 51.9698C246.28 54.5917 255.98 56.4733 265.454 59.2936C267.008 59.7561 268.56 60.2758 270.143 60.6333C271.507 60.9412 267.671 59.3165 266.377 58.7874C252.104 52.952 237.122 49.2072 222.643 43.9614C218.268 42.3761 213.76 40.7814 209.603 38.6621C208.089 37.8901 204.709 36.293 204.334 34.3155C203.949 32.2889 206.63 30.5467 208.1 29.8945C212.945 27.7448 218.867 27.1623 224.102 27.617C240.81 29.0685 257.27 35.8889 272.063 43.4553C283.19 49.1466 293.28 56.8579 303.025 64.6226C304.185 65.5464 305.37 66.4505 306.479 67.436C306.584 67.5297 302.894 64.6992 302.549 64.4589C296.787 60.4487 290.744 56.8981 284.716 53.3096C281.794 51.5702 278.399 49.9738 275.814 47.7126C275.23 47.2015 274.92 46.6494 276.023 46.7301C280.042 47.0242 284.706 50.0625 287.961 52.1485C294.893 56.5898 301.31 62.5089 306.122 69.2074C307.131 70.613 308.063 72.0715 309.069 73.4795C309.983 74.7587 308.958 72.4992 308.846 72.2589C305.375 64.861 300.094 58.2944 294.213 52.6695C292.607 51.1335 290.902 49.6976 289.271 48.1889C288.615 47.5824 290.274 49.675 290.879 50.3324C296.223 56.1445 302.184 61.9018 306.196 68.7608C306.905 69.9733 308.141 71.8088 307.848 73.3456C307.462 75.3711 303.173 73.6725 302.192 73.3456C295.206 71.0169 288.62 67.3428 282.037 64.0867C275.772 60.988 293.192 72.512 298.857 76.6055C305.055 81.0836 311.273 85.8683 316.065 91.8781C317.017 93.0715 318.017 94.2329 318.834 95.5251C318.911 95.6479 319.429 96.7989 319.429 96.448" stroke="black" stroke-width="6" stroke-linecap="round"/>
<path id="Vector 185" d="M323.761 138.623C322.746 157.228 320.409 175.71 317.104 194.049C316.629 196.691 317.648 188.708 317.818 186.029C318.585 173.93 320.272 161.536 323.736 149.896C324.071 148.769 324.444 147.655 324.787 146.531C324.913 146.114 325.435 145.031 325.062 145.254C324.803 145.409 324.501 146.721 324.486 146.768C323.592 149.729 322.883 152.745 322.222 155.764C319.254 169.305 318.518 183.216 317.805 197.027C317.57 201.574 317.265 206.098 316.792 210.627C316.618 212.289 316.329 217.29 316.329 215.619C316.329 208.317 316.785 200.947 318.08 193.749C318.125 193.5 318.721 190.419 318.794 191.86C318.981 195.617 318.469 199.469 318.18 203.208C317.494 212.109 316.812 221.044 313.401 229.382" stroke="black" stroke-width="6" stroke-linecap="round"/>
<path id="Vector 186" d="M33.021 102.849C42.4118 87.531 51.7575 72.2045 61.7878 57.2925C65.1603 52.2788 68.9355 47.4393 72.0769 42.2653C72.2332 42.0078 73.3327 40.3917 72.3769 41.4902C65.0609 49.8981 58.5528 58.8834 51.9613 67.8566C46.888 74.7632 43.1911 82.0592 39.3719 89.6974C38.7582 90.9248 37.7705 92.588 38.6468 90.0975C41.1045 83.1126 44.4219 76.4333 48.1983 70.0695C51.6403 64.2691 56.0843 59.0577 60.4626 53.9545C64.1175 49.6946 67.8053 45.4237 71.6018 41.2901C75.7713 36.7505 80.4222 32.597 84.8913 28.3632C85.5067 27.7801 85.7883 27.5116 84.9788 28.4382C82.0725 31.7647 79.2451 35.2071 76.5775 38.7272C69.3032 48.3264 62.9855 58.621 57.2496 69.1943C52.4895 77.969 47.7654 86.8837 42.2224 95.1982C37.2609 102.64 31.803 110.164 29.2079 118.814C28.4401 121.374 28.1103 123.977 27.8452 126.628C27.6861 128.219 27.3744 130.052 27.7452 131.641C27.9746 132.625 28.5631 132.911 29.4204 132.229C33.0212 129.366 35.8634 125.066 38.6718 121.452C40.5159 119.08 42.2878 116.396 44.5602 114.401C46.5704 112.636 46.3591 117.657 46.373 118.602C46.4501 123.843 45.115 128.829 43.6226 133.804C43.1726 135.304 41.8644 139.785 42.0474 138.23C42.4119 135.131 43.3755 132.138 44.3977 129.203C44.5626 128.73 44.7199 127.92 45.0478 127.503C45.5776 126.829 45.3704 129.196 45.3854 130.053C45.461 134.406 44.8114 138.648 44.0977 142.93C43.768 144.908 43.1475 146.964 43.1475 148.981" stroke="black" stroke-width="6" stroke-linecap="round"/>
<path id="Vector 188" d="M39.1873 166.656C38.3175 174.81 38.0894 182.798 38.4612 190.978" stroke="black" stroke-width="6" stroke-linecap="round"/>
<path id="Vector 189" d="M39.9133 164.114C37.8134 169.917 35.5364 175.782 35.1336 182.003C34.913 185.41 35.4047 188.717 35.9201 192.067" stroke="black" stroke-width="6" stroke-linecap="round"/>
<path id="Vector 190" d="M35.4037 189.679L34.674 196.795" stroke="black" stroke-width="6" stroke-linecap="round"/>
<path id="Vector 157" d="M36.1026 158.077C37.2476 149.706 38.7596 141.524 40.273 133.234C41.1559 128.398 40.8285 123.359 41.3831 118.473C41.8282 114.552 42.1987 109.816 44.4585 106.426C44.8865 105.784 45.0135 107.753 45.0135 106.862C45.0135 101.724 45.6584 96.3474 47.4588 91.5149C47.8006 90.5973 49.3511 86.7631 51.0141 87.1195C52.8494 87.5128 53.3084 84.7971 54.0444 83.3691C55.5953 80.3604 56.7192 76.1134 59.475 73.9481C60.9394 72.7976 62.6135 72.3411 64.1855 71.3979" stroke="black" stroke-width="6" stroke-linecap="round"/>
<path id="Vector 158" d="M77.788 52.487C79.3109 49.5762 90.9795 30.2119 94.2593 38.2708C94.6392 39.2043 94.1858 40.0844 95.3539 39.1808C97.6459 37.4077 99.6155 35.1198 101.605 33.0354C107.007 27.3748 112.114 21.5195 118.063 16.4058C120.273 14.5059 122.62 12.3536 125.237 10.9989C126.019 10.5942 127.729 9.72172 128.666 10.1549C129.368 10.4799 129.228 11.8251 129.193 12.3309C128.947 15.8676 127.94 19.3684 127.228 22.8282C126.99 23.9874 124.613 31.8742 127.136 32.1122C128.391 32.2307 129.699 31.5376 130.776 31.0177C134.938 29.008 138.903 26.5971 142.935 24.3447C147.581 21.749 152.559 18.4506 157.705 16.907C163.242 15.2459 155.315 29.0809 158.008 29.5406C159.078 29.7233 160.253 29.3291 161.239 28.9868C165.035 27.6691 168.67 25.8595 172.317 24.1865C175.084 22.9169 177.856 21.6665 180.73 20.6522C182.199 20.134 183.878 19.4513 185.478 19.5445C187.663 19.6717 187.812 21.7575 188.01 23.5931C188.229 25.6239 188.168 27.6863 188.168 29.7253C188.168 31.1382 187.98 32.7698 188.92 33.9585C191.325 37.0017 196.742 35.7464 199.931 35.0003C202.926 34.2997 205.837 33.293 208.82 32.5474" stroke="black" stroke-width="6" stroke-linecap="round"/>
<path id="Vector 159" d="M224.108 43.4621C226.834 41.6931 229.615 39.5332 232.8 38.6557C236.025 37.7669 237.38 37.8538 239.599 40.3083C240.85 41.6917 241.321 44.2459 243.081 45.3166C244.668 46.2822 247.118 45.6547 248.682 45.4049C251.119 45.0158 253.159 44.5729 255.57 44.0677C258.806 43.3897 262.051 42.5852 265.334 42.1627C267.332 41.9058 271.951 41.0401 272.702 43.8154C273.538 46.9057 271.684 49.8489 272.273 52.8479C272.902 56.0534 277.069 56.3563 279.64 56.6199C283.019 56.9665 287.298 56.4413 290.389 58.1212C292.09 59.0459 292.909 60.9167 293.82 62.5365C295.608 65.7151 297.449 67.9016 300.405 70.03" stroke="black" stroke-width="6" stroke-linecap="round"/>
<path id="Vector 160" d="M316.197 96.2694C318.576 98.2452 320.265 99.8046 321.209 102.836C321.716 104.464 321.673 106.319 322.492 107.849C323.185 109.144 324.611 110.058 325.496 111.216C327.01 113.196 325.456 116.368 324.616 118.314C323.607 120.65 321.478 123.305 321.287 125.904C321.141 127.895 322.323 129.791 323.295 131.435C324.465 133.416 324.991 135.195 325.056 137.51C325.1 139.071 325.496 140.617 325.496 142.173C325.496 143.98 324.638 145.524 323.89 147.094" stroke="black" stroke-width="6" stroke-linecap="round"/>
<path id="Vector 162" d="M38.1693 145.379C33.2091 140 30.1806 132.89 31.0422 125.462C31.5659 120.947 34.4518 116.703 38.5784 114.771C42.2386 113.058 46.4895 111.541 49.3013 108.495C52.1233 105.438 53.2314 102.051 53.5539 97.9656C53.8754 93.8928 53.0261 90.0606 52.2081 86.1015C51.366 82.0259 50.2754 77.3822 51.5191 73.2685C52.6807 69.4262 55.2836 66.4245 58.7861 64.5481C60.7327 63.5053 62.7571 62.7395 64.7828 61.8781C67.2836 60.8147 69.5694 59.3844 71.8883 57.9809" stroke="black" stroke-width="6" stroke-linecap="round"/>
<path id="Vector 165" d="M39.3572 95.2749C55.0809 78.6506 69.6781 62.433 86.743 47.2073C98.3482 36.8529 110.973 27.221 125.56 21.5465C128.403 20.4405 133.51 18.3706 136.902 19.2841C137.807 19.5276 135.534 20.5918 134.718 21.0507C130.745 23.2832 126.703 25.4059 122.631 27.4504C114.56 31.5021 106.294 35.1549 98.2408 39.2426C90.5495 43.1465 83.0308 47.4103 75.7256 51.9955C73.3059 53.5142 66.4534 58.6157 68.5356 56.6597C74.1119 51.4214 80.7697 47.7826 87.5488 44.3251C97.6016 39.198 108.03 34.6939 119.144 32.471C126.736 30.9527 134.168 30.8522 141.846 31.4637C142.967 31.553 145.04 31.6813 142.744 30.627C140.83 29.7477 138.622 29.3345 136.593 28.8605C133.327 28.0979 130.002 27.3166 126.66 26.97C112.241 25.4748 97.91 30.8524 85.7513 38.0959C80.1007 41.4622 75.2691 45.28 70.7515 50.0585C68.9693 51.9437 67.0283 53.8789 65.8548 56.2258" stroke="black" stroke-width="6" stroke-linecap="round"/>
<path id="Vector 170" d="M150.398 10.9555C170.811 8.89711 191.235 9.90623 211.393 13.8196C230.08 17.4475 247.944 23.8642 265.761 30.397C269.579 31.797 273.36 33.201 277.072 34.863C277.966 35.2633 280.244 35.6909 280.834 36.6348C281.554 37.7876 278.101 36.9069 276.756 36.7076C270.742 35.8167 264.903 34.284 258.989 32.897C244.625 29.5279 230.008 26.6348 215.398 24.5476C212.857 24.1847 211.934 24.0722 209.572 23.6738C208.752 23.5354 206.375 23.4063 207.145 23.0913C209.734 22.0325 214.644 23.1422 217.242 23.5525C232.442 25.9524 246.845 33.3825 260.009 41.0037C264.975 43.8788 270.39 46.8113 274.717 50.6395C275.57 51.394 277.654 53.1703 277.775 54.4501C277.843 55.1546 276.337 54.3447 275.688 54.0618C270.39 51.7512 265.291 48.9687 260.033 46.5619C247.349 40.7558 234.502 35.0959 220.47 33.7222C213.831 33.0722 207.148 32.9812 200.738 34.9843C198.379 35.7214 196.026 36.513 193.917 37.8241C193.623 38.0071 191.059 39.4637 192.582 39.7901C197.554 40.8555 203.346 40.2174 208.359 40.227C216.037 40.2417 223.735 40.0075 231.393 40.6882C240.358 41.4851 249.488 43.4205 257.946 46.5619C261.356 47.8284 257.964 48.5962 256.222 48.8677C248.815 50.0221 240.774 49.2244 233.407 48.091" stroke="black" stroke-width="6" stroke-linecap="round"/>
<path id="Vector 173" d="M150.575 14.7361C134.642 17.4223 118.481 22.0585 103.962 29.2106C99.6311 31.3439 96.3212 33.8372 93.1673 37.3065" stroke="black" stroke-width="6" stroke-linecap="round"/>
<path id="Vector 180" d="M107.851 21.0813C125.022 14.0107 142.702 10.4705 161.313 12.0753C172.85 13.0702 184.606 15.7094 195.04 20.7584" stroke="black" stroke-width="6" stroke-linecap="round"/>
<path id="Vector 199" d="M36.8944 197.304C37.0193 198.651 37.1957 199.917 37.5104 201.228" stroke="black" stroke-width="6" stroke-linecap="round"/>
<path id="Vector 187" d="M36.6461 173.553C35.2231 180.312 35.5596 187.034 35.92 193.882" stroke="black" stroke-width="6" stroke-linecap="round"/>
</g>
</g>
</svg>
