<svg width="363" height="498" viewBox="0 0 363 498" fill="none" xmlns="http://www.w3.org/2000/svg">
<g id="face">
<g id="jaw">
<path id="Vector 151" d="M44.1147 212.312C41.2777 221.491 37.8003 230.552 35.0146 239.705C33.9459 243.216 34.0203 246.814 33.4774 250.373C32.203 258.728 31.9402 266.806 31.9402 275.367C31.9402 283.596 31.9402 291.826 31.9402 300.055C31.9402 308.532 31.2047 317.378 32.4936 325.756C33.9296 335.09 33.6474 344.62 35.568 353.948C36.4605 358.283 37.1345 362.651 37.9045 367.014C38.5851 370.871 40.2506 374.402 40.9174 378.328C43.0126 390.666 46.7261 402.538 52.1696 413.745C54.8225 419.207 58.3889 424.056 61.8231 429.117C65.0147 433.82 68.2951 438.97 72.3374 443.013C75.882 446.557 77.1085 452.557 81.1916 455.679C83.8308 457.697 85.9735 460.681 88.6623 462.473C90.7254 463.849 93.6064 466.123 95.3337 468.007C98.8305 471.822 104.953 474.042 109.291 476.831C114.211 479.993 119.954 482.04 125.124 484.824C127.471 486.088 131.173 486.249 133.21 487.898C135.176 489.49 138.761 491.055 141.203 491.649C143.92 492.31 146.889 491.884 149.566 492.633C153.137 493.633 157.513 494.539 161.248 494.539C175.499 494.539 190.311 495.683 204.289 493.309C217.318 491.097 229.388 484.205 240.69 477.692C246.246 474.49 251.05 469.506 256.062 465.64C258.701 463.604 260.225 460.914 263.256 459.399C266.239 457.907 268.864 454.56 271.218 452.205C273.713 449.711 275.503 445.553 277.521 442.644C278.862 440.711 279.549 438.45 281.21 436.741C282.67 435.239 284.114 433.837 284.961 431.883C288.114 424.608 292.61 418.061 296.151 410.978C299.586 404.108 301.258 396.396 304.452 389.426C307.704 382.331 310.264 374.992 313.06 367.691C316.031 359.935 318.54 351.874 321.085 343.957C323.32 337.002 325.788 330.96 325.788 323.543C325.788 319.815 326.496 315.417 327.172 311.768C327.905 307.81 327.165 303.255 328.279 299.47C329.083 296.736 328.221 293.787 328.986 291.016C329.869 287.814 329.035 283.579 329.109 280.256C329.237 274.489 331.322 268.7 331.322 262.916C331.322 258.072 332.429 253.239 332.429 248.282" stroke="black" stroke-width="6" stroke-linecap="round"/>
<path id="Vector 192" d="M300.143 398.543C294.57 406.726 290.098 415.643 285.464 424.38C282.978 429.07 280.039 433.515 277.374 438.104C274.739 442.643 271.276 446.409 268.061 450.518C266.365 452.684 264.357 454.608 262.417 456.548C260.476 458.489 258.27 460.204 256.408 462.213C255.023 463.708 253.532 465.205 252.063 466.612C251.133 467.504 250.421 468.608 249.413 469.424C247.115 471.281 244.541 472.694 242.192 474.456C239.551 476.436 236.996 478.511 234.058 480.057C232.597 480.826 231.255 481.774 229.799 482.557C226.457 484.354 222.733 485.607 219.219 486.999" stroke="black" stroke-width="6" stroke-linecap="round"/>
<path id="Vector 193" d="M233.005 478.482C229.741 480.986 226.753 483.423 222.994 485.052C221.094 485.875 219.181 486.681 217.258 487.45C214.029 488.742 210.676 489.779 207.258 490.463C198.712 492.172 190.215 493.081 181.489 493.081C179.396 493.081 177.302 493.104 175.209 493.081C172.823 493.056 170.432 492.474 168.048 492.293C165.58 492.107 163.084 491.772 160.632 491.413C158.132 491.047 155.543 490.76 153.101 490.115C142.261 487.252 131.485 484.298 121.213 479.733" stroke="black" stroke-width="6" stroke-linecap="round"/>
<path id="Vector 194" d="M128.117 481.572C122.74 479.914 117.733 478.186 112.918 475.346C110.657 474.013 108.56 472.497 106.361 471.059C101.781 468.065 97.2051 465.265 93.2375 461.424C90.4951 458.769 87.6981 456.173 85.1899 453.288C82.6565 450.375 80.1323 447.451 77.6197 444.52C76.2167 442.883 74.733 441.336 73.4887 439.57C71.3157 436.488 69.2604 433.245 66.9512 430.266C65.9769 429.009 65.155 427.703 64.2427 426.408C63.7453 425.702 63.1356 425.157 62.7034 424.401" stroke="black" stroke-width="6" stroke-linecap="round"/>
<path id="Vector 195" d="M65.5894 427.892C60.8422 421.47 56.5035 415.149 53.9801 407.578C52.3401 402.658 50.3537 397.857 48.6551 392.957C46.8301 387.693 45.0517 382.301 43.6797 376.901C42.2937 371.447 40.6511 366.06 39.287 360.603" stroke="black" stroke-width="6" stroke-linecap="round"/>
<path id="Vector 196" d="M43.2225 370.849C40.9703 365.488 38.9425 359.865 38.0633 354.078C37.507 350.416 36.6815 346.795 36.1567 343.121C35.8559 341.016 35.5322 338.899 35.1559 336.806C34.6462 333.971 34.51 331.157 34.2932 328.291C34.0063 324.497 33.5467 320.727 33.1285 316.963" stroke="black" stroke-width="6" stroke-linecap="round"/>
<path id="Vector 197" d="M35.3283 328.466C35.0106 316.992 34.6093 305.522 34.8365 294.05C34.9301 289.323 34.8269 284.588 34.8454 279.86C34.8646 274.975 35.1708 270.095 35.3283 265.214" stroke="black" stroke-width="6" stroke-linecap="round"/>
<path id="Vector 198" d="M35.7317 272.92C35.7317 262.694 35.1807 252.161 37.329 242.091C38.4759 236.715 39.7647 231.371 40.9352 226C42.1535 220.41 43.2688 214.678 45.0803 209.243" stroke="black" stroke-width="6" stroke-linecap="round"/>
</g>
<path id="mouth" d="M119.988 382.95C131.441 387.595 143.035 392.001 154.891 395.459C159.429 396.782 164.02 397.021 168.658 397.78C176.977 399.141 186.186 398.453 193.657 394.431" stroke="black" stroke-width="6" stroke-linecap="round"/>
<path id="nose" d="M177.477 233.76C178.566 242.471 176.68 250.273 174.044 258.524C171.86 265.36 168.789 271.597 164.606 277.416C160.057 283.745 154.708 289.47 150.292 295.894C147.977 299.26 145.699 302.648 143.939 306.344C142.692 308.962 141.482 312.581 141.368 315.5C141.107 322.155 142.676 328.413 147.389 333.248C150.609 336.551 153.59 338.727 157.822 340.595C161.138 342.06 164.709 342.864 168.288 343.399C174.939 344.392 183.131 344.444 189.154 341.01C193.727 338.403 197.171 334.796 201.064 331.39" stroke="black" stroke-width="6" stroke-linecap="round"/>
<g id="eyes">
<g id="left-eye">
<path id="Vector 142" d="M231.806 245.308C240.286 241.545 248.855 240.118 258.091 239.426C262.125 239.123 265.45 239.356 269.317 240.165C273.256 240.99 277.048 241.898 280.812 243.341C285.399 245.1 289.537 247.4 293.786 249.828C296.376 251.308 297.542 253.265 299.551 255.273C300.058 255.781 300.45 256.441 300.929 256.92C300.979 256.971 300.293 255.991 300.021 255.761C293.167 249.961 285.021 245.352 276.19 243.358C272.09 242.432 267.939 241.072 263.704 241.072C259.642 241.072 255.581 241.072 251.519 241.072C248.022 241.072 244.687 241.982 241.419 243.19C238.716 244.189 235.932 244.243 233.487 245.98C231.987 247.046 229.351 248.55 228.411 250.148C227.975 250.89 228.087 249.935 228.613 249.408C230.013 248.008 231.077 246.928 232.815 245.913C237.868 242.958 242.755 240.898 248.545 239.627C255.734 238.049 263.751 238.365 270.997 239.257C277.278 240.031 283.087 241.964 288.576 245.072C292.748 247.435 296.928 249.651 299.87 253.475" stroke="black" stroke-width="6" stroke-linecap="round"/>
<path id="Vector 144" d="M257.929 244.71C257.364 246.967 257.158 249.05 257.72 251.348C258.14 253.063 258.96 254.83 260.458 255.856C262.272 257.098 264.727 256.917 266.592 255.949C268.574 254.92 270.148 252.654 269.9 250.352C269.685 248.364 268.157 246.905 266.161 246.813C264.039 246.715 261.793 248.058 260.921 249.991C260.54 250.837 260.739 253.484 262.237 253.155C264.04 252.759 264.842 250.771 264.933 249.129" stroke="black" stroke-width="6" stroke-linecap="round"/>
<path id="Vector 145" d="M289.741 271.925C287.845 273.821 286.006 275.481 283.686 276.85C280.566 278.69 277.02 279.829 273.425 280.276C269.815 280.726 266.337 280.753 262.742 280.177C257.345 279.311 252.606 277.048 247.679 274.771" stroke="black" stroke-width="6" stroke-linecap="round"/>
<path id="Vector 143" d="M252.342 244.543C251.962 248.858 251.739 253.623 254.213 257.422C255.084 258.759 256.082 260.069 257.387 261.007C258.727 261.972 260.352 262.865 262.043 262.888C263.688 262.911 265.203 262.724 266.763 262.175C270.281 260.937 272.832 258.387 274.616 255.161C275.52 253.526 276.244 251.699 275.978 249.801C275.869 249.022 275.542 248.368 275.357 247.628" stroke="black" stroke-width="6" stroke-linecap="round"/>
</g>
<g id="right-eye">
<path id="Vector 146" d="M78.9304 223.061C81.9007 220.355 85.244 218.527 88.9551 216.989C94.3363 214.758 100.079 213.251 105.882 212.678C111.418 212.132 117.3 212.628 122.709 213.867C127.739 215.019 132.878 216.476 137.288 219.237C144.161 223.539 150.367 228.933 154.602 235.921C155.377 237.199 156.073 238.538 156.65 239.916C156.695 240.023 157.233 240.854 156.958 240.518C156.312 239.729 155.79 238.834 155.211 237.983C154.063 236.296 152.678 234.684 151.237 233.243C147.282 229.288 142.914 225.708 138.348 222.488C133.47 219.048 127.959 215.951 122.23 214.232C118.425 213.091 114.447 212.297 110.487 211.976C108.19 211.791 105.874 211.654 103.57 211.747C101.357 211.837 99.1321 211.984 96.9318 212.234C92.997 212.681 89.2151 213.764 85.3748 214.683" stroke="black" stroke-width="6" stroke-linecap="round"/>
<path id="Vector 147" d="M108.687 217.706C108.378 218.715 107.945 219.694 107.76 220.733C107.155 224.114 107.369 226.886 107.739 230.322C108.003 232.779 108.287 237.111 109.825 239.398C110.364 240.2 111.87 240.603 112.719 240.908C114.827 241.666 117.213 241.861 119.442 241.526C121.554 241.209 123.159 240.404 124.724 238.969C126.164 237.649 126.847 235.961 127.464 234.143C128.065 232.372 128.412 230.529 128.412 228.657C128.412 227.295 128.425 225.645 127.899 224.365C126.306 220.481 121.385 218.239 117.412 218.239C114.662 218.239 112.245 219.428 111.272 222.061C109.733 226.226 110.58 231.703 113.576 235.014C114.707 236.265 116.086 237.035 117.777 237.08C119.292 237.12 121.409 236.788 122.399 235.492C124.381 232.899 123.281 228.868 121.345 226.571C120.366 225.408 119.232 224.816 117.721 225.524C115.741 226.451 114.722 228.489 114.264 230.519C113.952 231.908 113.916 233.472 115.171 234.424C116.287 235.272 118.24 235.216 119.294 234.298C120.679 233.092 121.428 231.226 120.994 229.43C120.584 227.731 119.034 226.796 117.355 226.571C115.773 226.359 113.814 227.219 112.909 228.538C112.22 229.541 112.226 230.72 112.354 231.867" stroke="black" stroke-width="6" stroke-linecap="round"/>
<path id="Vector 148" d="M128.918 251.213C116.261 259.034 98.7371 254.164 90.1137 242.601C88.9666 241.063 87.8088 239.516 86.8824 237.831C86.8054 237.691 86.652 237.443 86.489 237.389C86.0787 237.252 86.7522 238.214 86.9245 238.611C87.9927 241.07 89.4806 243.488 91.2377 245.509C94.547 249.317 98.5315 251.927 102.744 254.627" stroke="black" stroke-width="6" stroke-linecap="round"/>
</g>
</g>
<g id="ears">
<path id="left-ear" d="M331.028 275.162C332.952 272.052 335.193 269.015 338.245 266.919C339.332 266.173 340.847 265.314 342.131 266.063C343.544 266.889 344.006 268.479 344.352 269.98C345.286 274.037 345.332 278.351 344.467 282.417C343.611 286.443 341.608 290.197 340.049 293.975C339.144 296.168 338.069 298.332 336.973 300.436C336.141 302.033 335.171 303.566 334.174 305.063C332.059 308.234 330.412 311.606 328.669 314.994" stroke="black" stroke-width="6" stroke-linecap="round"/>
<g id="right-ear">
<path id="Vector 152" d="M34.1309 238.159C32.4528 235.633 30.4047 232.484 28.5943 229.984C27.7249 228.784 26.7616 227.395 25.5124 226.524C24.7731 226.008 23.9671 225.392 23.1334 225.042C21.6596 224.424 19.9088 223.783 18.3213 223.604C14.9822 223.229 11.4992 224.236 9.08636 226.61C6.02833 229.62 4.53124 233.474 3.76602 237.64C2.93907 242.143 2.73874 247.309 3.37672 251.85C4.24392 258.022 4.72309 264.235 5.51784 270.406C6.38521 277.141 6.91674 283.811 8.43754 290.455C9.94064 297.021 12.1305 303.895 15.1637 309.919C16.8343 313.237 18.8005 316.506 21.0571 319.457C23.9643 323.259 27.8377 325.98 31.6005 328.865" stroke="black" stroke-width="6" stroke-linecap="round"/>
<path id="Vector 177" d="M21.3733 242.962C19.4172 244.904 17.4706 246.574 16.0429 248.973C14.4404 251.666 14.157 254.591 14.2212 257.635C14.3014 261.439 14.81 265.307 15.2561 269.083C15.8545 274.148 17.0008 278.996 19.3319 283.536" stroke="black" stroke-width="6" stroke-linecap="round"/>
</g>
</g>
<g id="eyebrows">
<path id="left-brow" d="M223.912 207.432C227.019 204.616 230.135 202.277 233.785 200.191C239.056 197.18 244.502 195.031 250.45 193.783C262.608 191.232 274.786 192.17 286.423 196.434C291.797 198.403 297.345 200.626 302.33 203.446C305.856 205.441 309.121 207.733 311.993 210.604C314.762 213.373 319.023 217.273 319.023 221.574C319.023 226.269 311.485 226.701 308.308 226.026C297.715 223.775 287.993 218.426 277.428 215.988C265.886 213.325 254.274 210.204 242.305 211.454C238.074 211.896 232.922 213.369 228.775 211.71C228.297 211.519 226.578 210.701 226.545 210.064C226.494 209.103 226.82 208.535 227.477 207.825C231.196 203.808 237.32 203.593 242.397 203.473C244.299 203.428 246.204 203.143 248.101 202.989C250.44 202.799 252.785 202.871 255.122 202.66C260.275 202.194 265.341 202.127 270.498 202.577C275.664 203.029 280.314 204.741 284.951 206.938C285.988 207.429 286.778 208.167 287.758 208.711C288.079 208.89 288.549 209.539 288.005 208.995C287.536 208.526 286.747 208.39 286.195 208.008C285.366 207.434 284.38 207.031 283.48 206.572C276.43 202.984 268.451 202.494 260.662 202.203C259.044 202.142 257.493 202.016 255.89 201.764C255.062 201.634 254.022 201.595 253.303 201.096C252.761 200.722 253.397 200.508 253.769 200.338C256.785 198.958 260.086 198.573 263.368 198.381C266.501 198.198 269.598 198.202 272.701 198.738C275.304 199.187 277.781 199.985 280.298 200.749C280.599 200.84 282.468 201.251 281.212 201.142C276.846 200.764 272.524 200.014 268.121 200.21C262.345 200.467 256.568 201.602 250.907 202.724C249.236 203.055 247.564 203.374 245.889 203.684C244.766 203.891 243.478 204.305 242.323 204.305C241.935 204.305 243.056 204.045 243.43 203.939C245.549 203.34 247.726 202.959 249.893 202.577C256.181 201.471 262.54 200.735 268.935 200.968C273.208 201.124 277.59 202.117 281.615 203.556C282.42 203.843 283.224 204.168 284.01 204.506C284.633 204.775 284.172 204.651 283.735 204.525C280.172 203.497 276.632 202.329 272.994 201.59C265.604 200.089 257.709 199.642 250.213 200.539C247.13 200.908 244.259 201.731 241.409 202.952C241.243 203.023 239.36 204.023 239.855 203.939C242.297 203.526 244.677 202.393 247.031 201.663C251.055 200.416 255.163 199.324 259.272 198.39C260.174 198.186 261.1 198.021 261.978 197.723C262.142 197.667 262.554 197.394 262.38 197.394C259.246 197.394 256.034 198.212 252.983 198.838C246.564 200.156 240.23 202.692 234.727 206.252C233.806 206.848 231.291 208.708 232.377 208.556C241.06 207.344 249.426 204.969 258.257 204.817C266.891 204.669 274.946 206.56 282.785 210.119C282.996 210.215 285.728 211.509 285.299 211.939C284.739 212.498 282.027 212.038 281.514 212.003C278.93 211.826 276.405 211.375 273.853 210.951C268.921 210.132 263.99 209.3 259.071 208.401C257.243 208.066 255.401 207.711 253.604 207.231C253.23 207.13 252.408 207.012 252.087 206.737C251.854 206.538 254.146 206.136 254.208 206.134C260.829 205.863 267.498 207.426 273.78 209.361C284.554 212.678 294.512 217.437 304.506 222.552C304.663 222.632 306.359 223.484 305.465 222.854C302.889 221.035 300.429 219.163 297.704 217.552C294.579 215.704 291.44 213.893 288.05 212.569C285.267 211.482 282.335 210.758 279.75 209.223C279.236 208.919 278.443 208.413 279.046 207.752C279.835 206.886 281.44 206.62 282.501 206.389C284.592 205.935 286.702 205.802 288.837 205.896C292.406 206.052 296.015 207.123 299.276 208.547C302.898 210.129 306.477 212.037 309.223 214.946C309.626 215.373 311.194 216.801 310.329 217.442C309.869 217.782 309.119 217.791 308.583 217.753C306.96 217.635 305.263 217.301 303.747 216.711C299.279 214.972 295.089 212.215 290.921 209.863C287.446 207.903 283.868 206.04 280.755 203.519C280.167 203.043 278.648 201.924 280.298 201.791C282.049 201.65 283.977 202.326 285.619 202.806C288.711 203.711 291.669 204.909 294.568 206.307C296.262 207.124 314.736 217.442 311.801 219.736C310.38 220.847 306.999 219.595 305.584 219.142C302.746 218.233 299.214 216.994 296.89 215.038C295.925 214.225 297.274 214.648 297.722 214.782C299.918 215.436 302.003 216.282 304.048 217.305" stroke="black" stroke-width="6" stroke-linecap="round"/>
<path id="right-brow" d="M71.3335 183.944C74.493 183.172 77.5669 182.394 80.8218 182.14C86.3215 181.71 91.8692 181.729 97.3803 181.563C101.155 181.449 104.921 181.293 108.698 181.293C112.134 181.293 115.571 181.293 119.008 181.293C124.007 181.293 128.853 181.699 133.787 182.447C145.571 184.232 157.696 187.742 166.217 196.538C168.361 198.751 170.326 201.742 169.825 204.934C169.479 207.139 167.274 208.478 165.321 209.242C162.004 210.54 157.618 209.68 154.286 208.911C149.582 207.825 145.156 205.817 140.464 204.713C133.909 203.17 127.555 200.862 120.825 200.085C114.079 199.307 107.242 199.587 100.474 200.024C94.263 200.425 87.8668 200.281 81.8774 198.539C78.1307 197.449 73.1205 194.944 71.4563 191.162C69.3743 186.43 78.315 185.65 80.9323 185.54C87.1131 185.28 93.5401 186.131 99.6634 186.915C106.652 187.809 113.714 189.076 120.555 190.757C120.721 190.797 122.401 191.17 121.881 191.579C121.494 191.883 120.913 192.052 120.457 192.168C118.308 192.714 116.069 193.006 113.877 193.297C105.559 194.404 97.2019 194.116 88.8617 193.494C87.7048 193.407 84.2034 193.409 87.2292 192.757C96.6193 190.735 106.394 191.123 115.891 192.119C117.868 192.327 120.213 192.316 122.126 192.954C124.32 193.685 117.561 192.212 115.277 191.849C106.004 190.377 96.6745 190.131 87.3028 190.131C84.9774 190.131 82.7061 190.162 80.4045 190.339C80.2908 190.348 79.4419 190.381 79.8889 190.106C81.2696 189.256 82.8289 188.807 84.3937 188.412C87.5764 187.61 90.8758 187.334 94.1398 187.086C97.8304 186.807 101.606 186.49 105.31 186.645C111.829 186.916 118.454 187.184 124.925 188.032C131.139 188.846 137.03 189.918 143.017 191.8C144.509 192.269 146.046 192.707 147.485 193.322C147.623 193.381 149.52 194.083 148.639 194.083C146.58 194.083 144.479 193.64 142.453 193.334C138.767 192.778 135.055 192.476 131.344 192.131C126.006 191.635 120.664 191.235 115.301 191.235C115.204 191.235 114.227 191.159 114.688 191.284C116.803 191.861 119.128 191.881 121.291 192.168C130.576 193.399 139.828 195.652 148.725 198.576C152.198 199.717 155.732 201.038 158.889 202.908C159.171 203.076 159.659 203.363 160.006 203.363C160.788 203.363 158.9 202.245 158.263 201.791C156.225 200.343 153.856 199.194 151.585 198.158C149.536 197.224 147.029 196.531 145.301 195.028C143.088 193.104 151.585 193.754 152.003 193.813C155.18 194.257 159.289 195.128 160.767 198.379C162.05 201.203 159.42 203.579 156.9 204.32C152.348 205.659 147.745 203.296 144.38 200.404C144.034 200.107 141.867 198.531 142.428 197.765C143.506 196.296 147.219 197.469 148.467 197.814C150.42 198.355 152.195 199.564 153.893 200.638C154.523 201.036 155.666 201.645 155.906 202.454C156.114 203.157 153.862 202.912 153.623 202.896C151.097 202.73 148.523 201.732 146.332 200.515C145.394 199.994 143.777 199.166 143.496 197.986C143.082 196.247 149.214 196.331 149.891 196.391C152.397 196.612 158.959 197.329 160.251 200.282C161.126 202.281 157.22 203.088 156.102 203.24C153.974 203.529 151.829 203.161 149.756 202.675C146.31 201.868 142.865 201.011 139.581 199.68C138.186 199.115 136.657 198.589 135.358 197.814C134.73 197.44 134.655 197.156 135.432 196.931C138.124 196.148 141.247 196.673 143.95 197.078C148.306 197.731 152.733 198.537 156.937 199.877C157.515 200.061 163.181 201.725 162.461 203.166C162.032 204.023 160.526 204.267 159.723 204.467C157.4 205.048 154.814 204.933 152.469 204.516C149.75 204.033 147.117 203.082 144.466 202.332C140.72 201.271 136.96 200.258 133.21 199.214C130.743 198.527 127.606 197.745 125.465 196.317" stroke="black" stroke-width="6" stroke-linecap="round"/>
</g>
<g id="heir">
<path id="Vector 154" d="M41.5394 211.192C42.8398 205.449 44.3906 200.061 46.1701 194.459C47.5894 189.99 47.9575 185.186 48.9591 180.619C51.5786 168.674 52.8489 156.445 55.7473 144.52C58.4486 133.406 61.4603 121.691 65.6929 111.053C69.294 102.001 72.4367 92.8251 76.1121 83.7943C78.1725 78.7316 79.8842 73.541 82.2688 68.6391C85.5698 61.8539 92.4317 58.8967 99.4236 56.7992C117.243 51.4532 135.475 47.8805 153.94 45.8011C176.699 43.2382 199.782 48.4856 221.98 52.9051C240.883 56.6685 259.575 61.505 278.339 65.9028C286.69 67.8601 295.209 70.3788 302.861 74.3223C308.231 77.0901 314.05 79.5756 318.7 83.5312C322.738 86.9668 327.096 90.5287 330.277 94.7923C333.032 98.4855 334.853 102.254 336.591 106.527C338.376 110.911 340.456 115.314 341.696 119.893C342.999 124.706 343.16 130.043 343.222 134.996C343.355 145.626 343.013 156.161 341.327 166.674C340.464 172.059 339.469 177.548 339.065 182.987C338.697 187.93 337.193 192.967 337.065 197.879C336.798 208.149 337.178 218.442 337.065 228.716C337.016 233.202 335.964 238.42 334.697 242.713C333.892 245.44 332.803 248.114 332.803 250.975" stroke="black" stroke-width="6" stroke-linecap="round"/>
<path id="Vector 155" d="M35.5951 221.023C28.3974 206.125 27.7361 190.211 27.7361 174.023C27.7361 165.085 27.7361 156.147 27.7361 147.21C27.7361 133.762 29.0253 120.224 33.3863 107.452C35.9599 99.9153 38.5492 92.4256 42.2984 85.4162C46.4788 77.6006 51.2289 70.2655 55.5765 62.5582C57.9735 58.3091 61.4658 54.4748 64.3601 50.5386C67.8499 45.7925 72.0194 40.979 76.4569 37.1063C91.964 23.5728 109.471 12.6041 128.516 4.66858" stroke="black" stroke-width="6" stroke-linecap="round"/>
<path id="Vector 156" d="M119.208 5.34099C148.738 3.58091 177.907 1.8537 207.358 3.99132C216.901 4.68394 225.979 7.36283 235.364 8.96822C254.548 12.2498 273.391 20.1854 290.911 28.5806C297.748 31.8565 305.695 35.234 311.367 40.3902C317.34 45.8203 322.402 52.0565 327.563 58.2312C337.068 69.6032 343.939 83.9699 349.284 97.6668C354.484 110.99 355.968 124.541 357.973 138.579C359.771 151.167 360.561 165.619 357.593 178.014C354.405 191.329 352.315 205.079 350.339 218.631C349.504 224.353 348.559 230.25 347.26 235.881C345.168 244.945 340.528 253.364 337.095 261.947" stroke="black" stroke-width="6" stroke-linecap="round"/>
<path id="Vector 161" d="M339.663 173.247C341.115 173.924 342.841 174.192 344.019 175.279C347.144 178.16 346.314 181.484 345.641 185.183C345.093 188.194 341.223 194.859 344.215 197.647C346.846 200.099 348.314 202.064 347.887 205.813C346.984 213.744 343.206 221.277 341.773 229.158" stroke="black" stroke-width="6" stroke-linecap="round"/>
<path id="Vector 163" d="M38.4695 198.74C37.0538 195.093 34.4205 190.325 34.8435 186.186C34.9886 184.766 36.0268 184.684 36.9999 184.112C39.2617 182.781 40.463 179.888 41.6286 177.684C43.5291 174.09 44.4526 170.209 45.6392 166.353" stroke="black" stroke-width="6" stroke-linecap="round"/>
<path id="Vector 164" d="M34.5138 192.559C34.411 178.165 34.1575 163.706 35.7774 149.376C36.6053 142.053 37.6951 134.606 39.843 127.537C40.1675 126.469 40.5338 125.41 40.8869 124.351C40.9359 124.204 41.189 122.998 41.189 123.815C41.189 130.868 40.252 137.929 39.2387 144.899C37.7599 155.07 35.7447 165.157 34.3078 175.335C33.9508 177.864 33.6894 180.405 33.3051 182.931C33.2079 183.57 32.7611 185.346 33.1953 184.867C34.2862 183.663 34.9156 181.683 35.5027 180.252C38.5012 172.948 41.0054 165.456 43.8261 158.084C49.2499 143.909 56.2573 130.846 63.6869 117.648" stroke="black" stroke-width="6" stroke-linecap="round"/>
<path id="Vector 166" d="M107.559 35.6626C113.912 32.0823 120.117 28.2473 126.257 24.3128C128.526 22.8591 130.267 21.7175 132.451 20.2617C133.332 19.6744 134.821 18.9044 135.548 18.0185C136.699 16.6158 131.94 18.5319 130.208 19.0731C122.046 21.6236 114.656 26.0838 107.559 30.7745C87.8679 43.7872 71.1846 61.1044 57.0702 79.9236C51.3847 87.5042 46.3781 95.2884 42.841 104.096C39.9967 111.179 38.5712 118.316 37.0489 125.758" stroke="black" stroke-width="6" stroke-linecap="round"/>
<path id="Vector 167" d="M105.751 36.8679C91.7418 49.6092 79.8383 64.3458 69.2236 79.9905C65.8465 84.9679 62.4164 90.0168 59.6817 95.3915C56.442 101.759 54.32 108.549 51.8138 115.212" stroke="black" stroke-width="6" stroke-linecap="round"/>
<path id="Vector 168" d="M105.751 41.0864C90.7832 55.703 78.8121 73.2924 68.4702 91.3906C60.3219 105.65 54.643 120.707 48.8005 136.003" stroke="black" stroke-width="6" stroke-linecap="round"/>
<path id="Vector 169" d="M159.811 26.0963C182.995 23.0931 207.817 19.4125 231.079 24.0248C234.507 24.7045 237.796 25.5515 240.964 27.014C241.308 27.1729 242.365 27.5366 241.987 27.5122C240.07 27.3885 238.022 26.8524 236.166 26.4896C210.774 21.5257 184.581 21.8465 158.841 23.0284C152.845 23.3037 146.886 23.7391 140.905 24.1821C135.779 24.5619 151.183 23.7768 156.323 23.8151C176.907 23.9681 197.564 25.7717 217.339 31.76C221.011 32.8719 225.963 33.853 229.191 36.1126C231.01 37.386 228.86 37.7364 227.618 37.7908C219.373 38.1519 210.901 36.393 202.708 35.6407C193.931 34.8346 185.082 35.0146 176.277 35.0638C160.063 35.1544 143.869 37.3842 128.66 43.0874" stroke="black" stroke-width="6" stroke-linecap="round"/>
<path id="Vector 171" d="M268.365 41.6714C282.99 47.7181 297.468 54.1813 310.187 63.697C319.225 70.4587 327.735 77.8595 335.019 86.5091C336.554 88.3329 339.564 91.8367 335.412 88.2134C327.017 80.8872 320.097 72.3819 313.36 63.5396C310.831 60.2198 308.673 56.6491 306.438 53.13C305.166 51.1283 302.691 48.3477 302.898 45.7619C303.042 43.9636 305.591 44.9397 306.543 45.2899C312.549 47.5001 317.703 51.9536 322.065 56.5124C331.556 66.4303 338.233 79.6857 342.544 92.6185C343.125 94.3631 348.204 112.885 346.425 113.281C345.528 113.48 343.73 109.995 343.462 109.583C341.109 105.972 339.227 102.248 337.745 98.2036C336.858 95.7799 335.334 90.3697 338.139 96.1846C344.496 109.365 348.332 124.366 350.751 138.741C351.459 142.949 352.165 147.239 352.35 151.511C352.457 153.968 352.308 154.405 352.403 151.458C352.494 148.642 352.885 145.886 353.216 143.094C353.298 142.397 353.344 139.226 353.321 141.94C353.187 157.536 353.158 173.657 351.223 189.137C351.125 189.925 350.726 193.227 351.171 190.239C351.865 185.573 352.509 180.883 353.321 176.237C354.017 172.252 353.376 175.415 352.901 177.705C351.502 184.448 350.135 191.183 348.601 197.895" stroke="black" stroke-width="6" stroke-linecap="round"/>
<path id="Vector 172" d="M263.645 53.9428C272.125 54.9072 280.419 55.7104 288.188 59.4754C292.862 61.7402 297.219 64.5672 301.77 67.0532C306.665 69.7266 311.872 72.6753 317.188 74.4475C320.686 75.6135 312.195 69.9204 311.944 69.7801C295.159 60.416 275.338 56.6062 256.88 52.0549C245.222 49.1802 233.451 46.4409 222.216 42.1434C221.821 41.9921 211.202 37.4841 211.885 36.7157C213.28 35.1473 219.264 35.7233 221.01 35.7455C229.493 35.8533 238.227 37.9635 246.444 39.8884C251.148 40.9902 255.748 42.3972 260.368 43.7953C262.588 44.4674 265.443 45.8667 267.814 45.8667C269.107 45.8667 265.12 43.6926 265.061 43.6642C258.349 40.4082 250.883 38.2407 243.718 36.2961C220.272 29.9337 196.03 28.5875 171.925 31.4977C164.382 32.4084 156.872 33.8606 149.506 35.7193C147.702 36.1744 144.203 36.5305 142.662 37.7907C140.996 39.1543 146.809 36.6101 148.824 35.8504C155.02 33.5142 161.218 31.1094 167.362 28.6397C168.491 28.186 179.581 24.3235 175.596 22.032C171.454 19.6506 165.908 18.9726 161.279 18.3873C152.87 17.3241 144.25 17.0743 135.793 17.6007C133.032 17.7725 127.467 19.2415 125.278 17.4171C124.374 16.6637 119.34 20.1785 118.749 20.5374C113.897 23.4853 111.464 26.439 108.838 31.288" stroke="black" stroke-width="6" stroke-linecap="round"/>
<path id="Vector 174" d="M133.853 17.6694C120.511 22.5088 107.913 28.9426 96.6898 37.7237C87.3453 45.0349 81.8626 55.0196 75.546 64.8454" stroke="black" stroke-width="6" stroke-linecap="round"/>
<path id="Vector 178" d="M64.3284 66.3603C73.7345 53.9359 83.974 42.1585 95.7258 31.862C100.877 27.3486 108.643 21.2678 115.301 18.1014C115.757 17.8844 116.986 17.7432 116.812 18.2177C116.441 19.2305 115.283 19.7446 114.448 20.4272C105.761 27.5253 96.3349 33.8626 87.4307 40.6998C81.604 45.1738 75.3583 49.4898 70.4528 55.003C69.5003 56.0735 68.5989 57.2058 67.5844 58.2203C65.7041 60.1006 71.3305 54.4377 73.3406 52.6967C82.1823 45.0385 92.2162 39.1746 102.354 33.4125C111.377 28.284 120.724 22.9282 130.883 20.3884C146.431 16.5015 163.707 20.1231 179.103 22.404" stroke="black" stroke-width="6" stroke-linecap="round"/>
<path id="Vector 179" d="M91.5394 55.8947C105.009 49.7316 119.156 44.7184 133.247 40.196C142.899 37.0986 151.73 35.2699 161.776 35.0406C169.234 34.8704 176.728 35.1602 184.123 36.1841C185.254 36.3408 186.38 36.5545 187.515 36.688C188.263 36.776 186.017 36.853 185.266 36.9206C170.05 38.29 154.826 39.7817 139.682 41.824C126.981 43.5369 114.208 46.8516 101.346 47.0181C98.4372 47.0558 91.0376 47.3342 94.3496 42.6768C101.037 33.2726 112.372 27.1069 122.898 23.1212C129.909 20.4667 137.439 18.4484 144.915 17.6945C157.023 16.4736 169.483 18.4084 181.545 19.2644" stroke="black" stroke-width="6" stroke-linecap="round"/>
<path id="Vector 181" d="M112.122 21.0086C133.911 12.2078 157.878 7.43635 181.39 9.57378C198.685 11.1461 214.432 17.4182 230.385 23.7995" stroke="black" stroke-width="6" stroke-linecap="round"/>
<path id="Vector 182" d="M109.331 17.8688C117.112 14.7234 125.029 12.5514 133.286 10.9691C146.654 8.40761 160.409 6.61097 174.045 7.30612C193.173 8.28131 211.264 13.3763 229.688 18.2177" stroke="black" stroke-width="6" stroke-linecap="round"/>
<path id="Vector 183" d="M169.684 37.0561C183.889 39.6787 198.305 41.1049 212.439 44.1108C224.752 46.7298 236.794 50.294 248.875 53.8014" stroke="black" stroke-width="6" stroke-linecap="round"/>
<path id="Vector 184" d="M216.76 23.6433C224.299 23.7322 224.102 23.538 233.645 25.0584C251.477 27.8995 269.328 31.7274 286.198 38.2932C292.69 40.8197 293.278 41.3782 297.793 44.3879C299.838 45.7517 298.622 45.0758 297.648 44.7417C285.781 40.6711 274.091 36.1154 262.205 32.1019C249.372 27.7685 236.457 23.3863 223.225 20.4271C221.707 20.0877 217.187 19.7342 218.69 19.3336C219.691 19.0666 221.351 19.3416 222.324 19.43C225.576 19.7257 228.801 20.3712 231.989 21.0542C248.836 24.6644 265.517 30.4163 281.101 37.7786C286.05 40.1167 291.069 42.5358 295.654 45.5457C296.115 45.8483 300.613 48.8937 297.809 48.5047C292.522 47.7713 287.354 45.8573 282.242 44.4201C274.474 42.2361 266.625 40.372 258.7 38.856C253.315 37.8261 247.843 36.7668 242.361 36.4278C241.61 36.3813 237.51 35.8833 240.222 36.9745C251.692 41.5886 263.589 45.0158 275.167 49.3248C280.304 51.2369 285.458 53.2474 290.283 55.8698C290.436 55.953 294.933 58.3157 293.386 58.4589C292.053 58.5823 290.273 58.2901 289.109 58.1212C281.927 57.0794 274.799 55.6236 267.673 54.2617C260.352 52.8624 253.042 51.2604 245.642 50.3218C245.554 50.3107 237.166 49.2599 239.145 50.3701C243.851 53.0103 249.367 54.3553 254.518 55.7733C264.809 58.6057 275.288 60.6385 285.523 63.6852C287.201 64.1849 288.878 64.7463 290.588 65.1325C292.062 65.4652 287.918 63.71 286.52 63.1385C271.1 56.8343 254.915 52.7888 239.274 47.1217C234.547 45.4091 229.677 43.6863 225.187 41.3968C223.55 40.5627 219.899 38.8374 219.494 36.7011C219.078 34.5117 221.974 32.6296 223.562 31.9251C228.797 29.6027 235.195 28.9734 240.85 29.4646C258.9 31.0326 276.682 38.4009 292.663 46.5749C304.683 52.7233 315.584 61.0539 326.111 69.4422C327.364 70.4402 328.645 71.417 329.842 72.4816C329.956 72.5828 325.97 69.525 325.597 69.2654C319.372 64.9332 312.844 61.0973 306.332 57.2206C303.175 55.3416 299.507 53.6169 296.715 51.1741C296.084 50.622 295.749 50.0256 296.94 50.1128C301.283 50.4305 306.32 53.7127 309.837 55.9663C317.326 60.7643 324.259 67.1588 329.456 74.3952C330.547 75.9138 331.554 77.4894 332.64 79.0105C333.628 80.3924 332.521 77.9514 332.399 77.6918C328.65 69.6998 322.944 62.6058 316.591 56.5291C314.857 54.8698 313.015 53.3186 311.253 51.6887C310.544 51.0335 312.336 53.2942 312.989 54.0044C318.763 60.2833 325.203 66.5029 329.537 73.9128C330.303 75.2227 331.638 77.2055 331.322 78.8658C330.905 81.054 326.271 79.219 325.211 78.8658C317.664 76.3501 310.549 72.3809 303.437 68.8633C296.669 65.5157 315.489 77.9652 321.609 82.3875C328.304 87.2252 335.022 92.3942 340.199 98.8867C341.226 100.176 342.307 101.431 343.19 102.827C343.274 102.959 343.833 104.203 343.833 103.824" stroke="black" stroke-width="6" stroke-linecap="round"/>
<path id="Vector 185" d="M348.512 149.386C347.416 169.485 344.891 189.451 341.321 209.264C340.807 212.117 341.908 203.493 342.092 200.6C342.921 187.528 344.744 174.139 348.485 161.564C348.847 160.347 349.25 159.143 349.62 157.928C349.758 157.479 350.321 156.308 349.918 156.55C349.639 156.717 349.311 158.134 349.296 158.185C348.33 161.383 347.564 164.642 346.85 167.904C343.643 182.532 342.849 197.56 342.078 212.48C341.825 217.392 341.495 222.28 340.983 227.173C340.796 228.968 340.483 234.371 340.483 232.566C340.483 224.678 340.976 216.715 342.376 208.939C342.424 208.67 343.068 205.341 343.146 206.898C343.349 210.958 342.795 215.119 342.484 219.157C341.742 228.774 341.005 238.426 337.321 247.434" stroke="black" stroke-width="6" stroke-linecap="round"/>
<path id="Vector 186" d="M34.4224 110.739C44.5673 94.1904 54.6636 77.6331 65.4995 61.5235C69.1428 56.107 73.2212 50.8789 76.6149 45.2893C76.7838 45.0112 77.9717 43.2652 76.9391 44.452C69.0355 53.5352 62.0046 63.2422 54.8839 72.936C49.403 80.3973 45.4092 88.2792 41.2834 96.5309C40.6204 97.8569 39.5534 99.6536 40.5 96.9631C43.1551 89.4172 46.7389 82.2015 50.8186 75.3265C54.537 69.0603 59.338 63.4304 64.0679 57.9174C68.0163 53.3153 72.0002 48.7015 76.1017 44.2359C80.606 39.3316 85.6305 34.8446 90.4585 30.2707C91.1234 29.6408 91.4276 29.3508 90.5531 30.3517C87.4133 33.9454 84.3589 37.6643 81.4771 41.4671C73.6185 51.8372 66.7934 62.9586 60.5969 74.3811C55.4545 83.8605 50.3509 93.4912 44.3627 102.473C39.0028 110.513 33.1066 118.641 30.303 127.986C29.4736 130.751 29.1173 133.564 28.8309 136.427C28.659 138.147 28.3223 140.127 28.7229 141.843C28.9707 142.906 29.6065 143.215 30.5327 142.478C34.4226 139.385 37.4931 134.74 40.527 130.836C42.5192 128.273 44.4334 125.374 46.8883 123.219C49.0599 121.312 48.8317 126.736 48.8467 127.757C48.93 133.419 47.4877 138.805 45.8754 144.18C45.3893 145.8 43.976 150.641 44.1737 148.961C44.5674 145.614 45.6084 142.379 46.7128 139.21C46.8909 138.698 47.0609 137.824 47.4151 137.373C47.9874 136.644 47.7636 139.202 47.7797 140.128C47.8615 144.83 47.1597 149.413 46.3886 154.039C46.0325 156.176 45.3622 158.397 45.3622 160.576" stroke="black" stroke-width="6" stroke-linecap="round"/>
<path id="Vector 188" d="M41.0838 179.67C40.1442 188.479 39.8978 197.109 40.2995 205.946" stroke="black" stroke-width="6" stroke-linecap="round"/>
<path id="Vector 189" d="M41.8682 176.925C39.5996 183.193 37.1398 189.529 36.7046 196.25C36.4663 199.93 36.9975 203.503 37.5543 207.122" stroke="black" stroke-width="6" stroke-linecap="round"/>
<path id="Vector 190" d="M36.9965 204.543L36.2081 212.229" stroke="black" stroke-width="6" stroke-linecap="round"/>
<path id="Vector 157" d="M37.7515 170.402C38.9884 161.359 40.6218 152.52 42.2568 143.564C43.2106 138.34 42.8569 132.896 43.4561 127.617C43.9369 123.381 44.3372 118.265 46.7784 114.604C47.2409 113.91 47.378 116.037 47.378 115.073C47.378 109.523 48.0747 103.715 50.0197 98.4944C50.389 97.503 52.064 93.361 53.8606 93.7459C55.8432 94.1708 56.3391 91.237 57.1343 89.6944C58.8097 86.444 60.0238 81.8559 63.001 79.5168C64.5829 78.2738 66.3915 77.7806 68.0897 76.7617" stroke="black" stroke-width="6" stroke-linecap="round"/>
<path id="Vector 158" d="M82.7848 56.332C84.43 53.1874 97.0357 32.2679 100.579 40.9741C100.989 41.9825 100.499 42.9333 101.761 41.9571C104.237 40.0416 106.365 37.57 108.514 35.3181C114.35 29.2029 119.868 22.8774 126.294 17.353C128.682 15.3005 131.217 12.9754 134.044 11.5119C134.889 11.0746 136.737 10.1321 137.749 10.6001C138.507 10.9512 138.356 12.4044 138.318 12.9508C138.053 16.7716 136.964 20.5536 136.196 24.2912C135.938 25.5435 133.371 34.0637 136.096 34.3209C137.452 34.4488 138.865 33.7 140.028 33.1384C144.525 30.9674 148.808 28.3628 153.163 25.9295C158.183 23.1253 163.561 19.562 169.12 17.8944C175.101 16.1 166.539 31.0461 169.447 31.5427C170.603 31.7401 171.872 31.3142 172.938 30.9444C177.039 29.5209 180.966 27.5659 184.905 25.7586C187.895 24.387 190.89 23.0362 193.995 21.9405C195.581 21.3806 197.396 20.6431 199.123 20.7437C201.484 20.8812 201.645 23.1345 201.859 25.1175C202.095 27.3114 202.03 29.5395 202.03 31.7422C202.03 33.2686 201.827 35.0313 202.842 36.3154C205.44 39.603 211.293 38.2469 214.738 37.4409C217.973 36.684 221.118 35.5965 224.34 34.791" stroke="black" stroke-width="6" stroke-linecap="round"/>
<path id="Vector 159" d="M240.856 46.5823C243.801 44.6712 246.805 42.3379 250.246 41.3899C253.73 40.4297 255.194 40.5236 257.591 43.1752C258.943 44.6697 259.452 47.4291 261.353 48.5857C263.067 49.6289 265.714 48.9511 267.404 48.6811C270.036 48.2608 272.24 47.7823 274.845 47.2365C278.341 46.5041 281.846 45.635 285.394 45.1786C287.551 44.901 292.542 43.9658 293.353 46.9639C294.256 50.3024 292.253 53.482 292.889 56.722C293.569 60.1849 298.071 60.512 300.848 60.7969C304.498 61.1713 309.121 60.6039 312.46 62.4187C314.298 63.4177 315.182 65.4388 316.167 67.1887C318.098 70.6225 320.087 72.9846 323.281 75.284" stroke="black" stroke-width="6" stroke-linecap="round"/>
<path id="Vector 160" d="M340.341 103.631C342.911 105.765 344.736 107.45 345.756 110.725C346.304 112.484 346.256 114.488 347.141 116.14C347.89 117.539 349.43 118.526 350.387 119.778C352.023 121.917 350.344 125.344 349.436 127.446C348.346 129.969 346.046 132.838 345.84 135.646C345.682 137.796 346.959 139.844 348.009 141.621C349.273 143.761 349.841 145.683 349.912 148.183C349.959 149.87 350.387 151.54 350.387 153.22C350.387 155.173 349.46 156.841 348.652 158.538" stroke="black" stroke-width="6" stroke-linecap="round"/>
<path id="Vector 162" d="M39.9841 156.684C34.6256 150.873 31.3538 143.193 32.2847 135.168C32.8504 130.291 35.9681 125.705 40.4261 123.619C44.3802 121.768 48.9726 120.129 52.0102 116.838C55.0589 113.535 56.2559 109.876 56.6043 105.463C56.9516 101.063 56.0341 96.9233 55.1505 92.6462C54.2407 88.2432 53.0625 83.2266 54.4061 78.7825C55.661 74.6316 58.4729 71.3888 62.2568 69.3618C64.3596 68.2352 66.5467 67.4079 68.735 66.4774C71.4367 65.3285 73.9061 63.7833 76.4112 62.2671" stroke="black" stroke-width="6" stroke-linecap="round"/>
<path id="Vector 165" d="M41.2675 102.556C58.2539 84.5968 74.0235 67.0768 92.4589 50.6283C104.996 39.4423 118.635 29.0368 134.393 22.9066C137.465 21.7117 142.981 19.4756 146.647 20.4625C147.624 20.7255 145.169 21.8752 144.287 22.3709C139.995 24.7828 135.629 27.0759 131.229 29.2846C122.51 33.6618 113.58 37.6079 104.88 42.0239C96.5712 46.2413 88.4486 50.8476 80.5567 55.801C77.9427 57.4417 70.5398 62.9529 72.7892 60.8398C78.8134 55.1808 86.0059 51.2498 93.3294 47.5146C104.19 41.9757 115.456 37.1098 127.463 34.7084C135.664 33.0681 143.692 32.9597 151.987 33.6203C153.198 33.7167 155.438 33.8553 152.958 32.7163C150.89 31.7664 148.505 31.32 146.312 30.8079C142.784 29.9841 139.193 29.1401 135.582 28.7656C120.005 27.1503 104.523 32.9599 91.3876 40.7851C85.2831 44.4218 80.0635 48.5462 75.1831 53.7085C73.2577 55.745 71.1609 57.8357 69.8932 60.3711" stroke="black" stroke-width="6" stroke-linecap="round"/>
<path id="Vector 170" d="M161.227 11.4651C183.279 9.2413 205.343 10.3315 227.12 14.5591C247.308 18.4785 266.607 25.4104 285.854 32.4679C289.979 33.9803 294.063 35.4971 298.073 37.2926C299.039 37.7251 301.5 38.187 302.138 39.2067C302.916 40.4521 299.185 39.5006 297.732 39.2854C291.236 38.3229 284.927 36.6671 278.539 35.1687C263.02 31.529 247.23 28.4035 231.446 26.1487C228.702 25.7567 227.705 25.6352 225.153 25.2048C224.267 25.0553 221.699 24.9158 222.531 24.5755C225.327 23.4316 230.632 24.6305 233.439 25.0737C249.859 27.6664 265.419 35.6932 279.64 43.9265C285.005 47.0325 290.855 50.2005 295.53 54.3361C296.451 55.1513 298.702 57.0702 298.834 58.4528C298.906 59.2139 297.28 58.3389 296.579 58.0333C290.855 55.5371 285.347 52.5312 279.666 49.931C265.964 43.6587 252.085 37.5442 236.926 36.0602C229.754 35.358 222.534 35.2597 215.609 37.4237C213.061 38.2199 210.519 39.0751 208.241 40.4915C207.923 40.6892 205.153 42.2628 206.799 42.6154C212.17 43.7664 218.427 43.077 223.842 43.0874C232.137 43.1033 240.453 42.8503 248.726 43.5856C258.411 44.4465 268.275 46.5374 277.411 49.931C281.095 51.2993 277.431 52.1287 275.55 52.422C267.547 53.6691 258.861 52.8074 250.902 51.5829" stroke="black" stroke-width="6" stroke-linecap="round"/>
<path id="Vector 173" d="M161.417 15.5492C144.205 18.4512 126.746 23.4597 111.061 31.1862C106.382 33.4908 102.806 36.1843 99.3991 39.9323" stroke="black" stroke-width="6" stroke-linecap="round"/>
<path id="Vector 180" d="M115.262 22.4041C133.812 14.7656 152.912 10.941 173.017 12.6748C185.481 13.7495 198.181 16.6007 209.454 22.0552" stroke="black" stroke-width="6" stroke-linecap="round"/>
<path id="Vector 199" d="M38.6069 212.779C38.7418 214.235 38.9323 215.602 39.2723 217.019" stroke="black" stroke-width="6" stroke-linecap="round"/>
<path id="Vector 187" d="M38.3386 187.121C36.8013 194.423 37.1649 201.685 37.5542 209.083" stroke="black" stroke-width="6" stroke-linecap="round"/>
</g>
</g>
</svg>
